<svg width="74" height="69" viewBox="0 0 74 69" fill="none" xmlns="http://www.w3.org/2000/svg">
<g clip-path="url(#clip0_1673_1155)">
<mask id="mask0_1673_1155" style="mask-type:luminance" maskUnits="userSpaceOnUse" x="2" y="-8" width="74" height="77">
<path d="M2 -8H76V53.7271C76 62.1565 69.4231 69 61.3221 69H2V-8Z" fill="white"/>
</mask>
<g mask="url(#mask0_1673_1155)">
<path d="M41.5818 109.729C64.5619 109.729 83.1909 91.636 83.1909 69.3177C83.1909 46.9993 64.5619 28.9067 41.5818 28.9067C18.6017 28.9067 -0.0273972 46.9993 -0.0273972 69.3177C-0.0273972 91.636 18.6017 109.729 41.5818 109.729Z" fill="#002570"/>
<path d="M47.5741 125.765C70.5542 125.765 89.1832 107.672 89.1832 85.3538C89.1832 63.0355 70.5542 44.9429 47.5741 44.9429C24.594 44.9429 5.9649 63.0355 5.9649 85.3538C5.9649 107.672 24.594 125.765 47.5741 125.765Z" fill="#0246B2"/>
<path d="M49.2955 12.1269H49.4713C52.4748 12.1341 55.4856 12.9363 57.859 14.8152C57.903 14.8513 57.947 14.8802 57.9909 14.9164C60.7307 17.0988 62.0493 20.3001 62.4961 23.6749C62.5108 23.7617 62.5181 23.8556 62.5328 23.9423C62.6793 25.1058 62.7086 26.2693 62.7232 27.4328C62.7745 29.9115 62.9503 32.2746 64.1371 34.5076C65.304 36.7138 65.8827 38.4677 65.8732 39.7685V40.0431C65.8439 41.5824 65.3458 42.8037 64.3788 44.0033C64.4425 44.0228 64.5055 44.0416 64.5693 44.0611C66.1662 44.632 67.2504 46.2363 67.9537 47.6744C69.221 50.3771 69.5067 53.499 69.7265 56.4329C69.7265 56.5269 69.7411 56.6208 69.7484 56.7148C69.8144 57.6687 69.8144 58.6226 69.8217 59.5765V60.422C69.8363 63.5489 69.358 65.5984 68.3859 66.5718C68.3419 66.608 68.298 66.6513 68.254 66.6874C68.2101 66.7236 68.1734 66.7669 68.1295 66.8031C66.1662 68.4146 62.2983 68.4652 59.8516 68.4218C59.163 68.4146 58.4964 68.5013 57.8151 68.588C57.3389 68.6458 56.8701 68.6892 56.3939 68.7253C56.328 68.7253 56.2621 68.7398 56.1888 68.7398C55.9617 68.7542 55.7346 68.7687 55.5075 68.7831C55.4123 68.7831 55.3171 68.7976 55.2145 68.8048C54.0717 68.8771 52.9289 68.8699 51.7862 68.8699H50.9144C48.9438 68.8699 46.9879 68.8193 45.032 68.6603C44.9514 68.6603 44.8782 68.6458 44.7976 68.6386C43.6621 68.5447 42.5193 68.4363 41.3839 68.3062C41.3179 68.3062 41.252 68.2917 41.1861 68.2845C39.7847 68.1255 38.9884 67.9543 38.7979 67.7714C38.7393 67.0632 38.8199 66.3333 38.8639 65.6324C38.8639 65.5384 38.8785 65.4445 38.8859 65.3433C38.9225 64.7796 38.9664 64.216 39.0177 63.6523C38.9884 63.739 38.9591 63.833 38.9298 63.9269C38.8199 64.2665 38.71 64.599 38.6002 64.9386C38.5489 65.0831 38.5049 65.2277 38.4536 65.3722C38.3438 65.7191 38.2266 66.0587 38.1167 66.4056C38.0434 66.6224 37.9775 66.8392 37.9042 67.056C37.8801 67.1333 37.8551 67.2128 37.831 67.2945C37.809 67.3595 37.787 67.4246 37.7724 67.4896C37.6771 67.7281 37.5746 67.822 37.3475 67.9304C36.8274 68.0894 36.3146 68.0966 35.7725 68.0894H35.5161C34.6151 68.0822 33.7506 67.9882 32.8642 67.7931C32.813 67.7859 32.7617 67.7714 32.7104 67.757C32.3075 67.663 31.9998 67.4968 31.7068 67.2005C31.7288 66.1671 32.0218 65.0976 32.2123 64.0859C32.2416 63.9341 32.2709 63.7824 32.3002 63.6306C33.0276 59.8244 33.6481 57.0111 34.1609 55.19C34.1828 55.1033 34.2122 55.0093 34.2341 54.9154C34.2539 54.838 34.2759 54.7615 34.3001 54.6841C34.3367 54.4673 34.3294 54.33 34.2634 54.1204C34.1169 53.9687 33.9631 53.8386 33.7946 53.7085C33.7162 53.598 33.6847 53.465 33.6994 53.3111C33.7506 53.0509 33.8166 52.8124 33.9045 52.5595C33.9191 52.5162 33.9338 52.4728 33.9484 52.4222C33.9997 52.2777 34.051 52.1331 34.1023 51.9814C34.1169 51.9308 34.1389 51.8802 34.1535 51.8296C35.2377 48.7511 36.4684 45.5497 39.1715 43.4974C39.2353 43.449 39.3012 43.3984 39.3693 43.3456C39.5232 43.23 39.677 43.1072 39.8308 42.9915C39.7869 42.9626 39.7429 42.9337 39.699 42.9048C39.2155 42.5796 38.7906 42.2255 38.3657 41.8353C38.3167 41.7919 38.2654 41.7464 38.2119 41.698C37.5599 41.0982 37.0545 40.2671 36.7541 39.4505C36.7395 39.4072 36.7175 39.3638 36.7028 39.3132C35.941 37.2103 36.4831 35.0496 37.179 33.0117C37.4574 32.2095 37.6625 31.4074 37.7064 30.5619C37.7064 30.5113 37.7064 30.4607 37.7138 30.4029C37.7431 29.5212 37.5306 28.654 37.3109 27.8085C36.3878 24.2675 36.505 20.7121 38.4317 17.4962C38.8785 16.8097 39.4133 16.1882 39.9774 15.5956C40.0213 15.5451 40.0653 15.5017 40.1165 15.4511C42.4461 13.0374 46.0209 12.1124 49.2881 12.1197L49.2955 12.1269Z" fill="#FEB73E"/>
<path d="M49.2956 12.127H49.4714C52.4748 12.1342 55.4856 12.9363 57.8591 14.8152C57.9031 14.8514 57.947 14.8803 57.991 14.9164C60.7307 17.0988 62.0493 20.3002 62.4962 23.675C62.5109 23.7617 62.5182 23.8557 62.5328 23.9424C62.6793 25.1059 62.7086 26.2693 62.7233 27.4328C62.7746 29.9115 62.9504 32.2746 64.1371 34.5076C65.3041 36.7139 65.8828 38.4678 65.8733 39.7686V40.0432C65.844 41.7703 65.2286 43.1217 63.976 44.343C63.7906 44.507 63.6317 44.5865 63.4998 44.5814C63.2947 44.4947 63.1848 44.3647 63.031 44.1984C62.357 43.5191 61.5732 42.9916 60.7161 42.5725C60.4084 42.4135 60.3059 42.3051 60.196 41.9871C59.273 41.1994 57.7419 40.9393 56.5552 40.9609C56.4431 40.9609 56.3376 40.9898 56.2402 41.0477C55.8006 41.0766 55.4124 40.9898 54.9875 40.8815C54.9216 40.867 54.8556 40.8525 54.7897 40.8381C54.3502 40.7297 54.0059 40.643 53.7495 40.26C53.7297 40.1154 53.7151 39.9564 53.7055 39.783C53.7055 39.7324 53.7055 39.6891 53.6982 39.6385C53.6982 39.5373 53.6836 39.4361 53.6836 39.3422C53.6762 39.1904 53.6689 39.0459 53.6543 38.8941C53.6323 38.6051 53.625 38.3088 53.6103 38.0197V37.8752C53.6103 37.7379 53.603 37.5934 53.5957 37.4561V37.2104C53.6154 37.0752 53.6616 36.9596 53.7348 36.8635C53.8887 36.7551 54.0425 36.6611 54.2037 36.5744C55.3684 35.6711 56.0644 34.4354 56.6211 33.1057C56.6797 33.1201 56.7383 33.1273 56.7969 33.1418C57.6467 33.2574 58.4891 33.1273 59.207 32.6287C59.251 32.5926 59.2949 32.5637 59.3389 32.5275C59.3828 32.4986 59.4268 32.4625 59.4707 32.4336C60.1374 31.8627 60.5403 30.8582 60.6135 30.0055C60.6209 29.1961 60.533 28.4879 59.9396 27.8809C59.4414 27.4906 58.8627 27.3316 58.2254 27.3678C57.5075 27.4689 57.046 27.917 56.5552 28.4084C56.3134 28.3361 56.2548 28.2494 56.1156 28.0326C56.0644 27.9387 56.0131 27.8375 55.9691 27.7436C55.945 27.6908 55.9179 27.6373 55.8885 27.5846C55.5589 26.898 55.4197 26.2043 55.4563 25.4455H55.3318C53.1268 25.3443 50.8119 23.993 49.3102 22.4465C48.5117 21.5359 47.9623 20.5025 47.5447 19.3752C47.4861 19.4475 47.4275 19.5197 47.3616 19.592C46.6291 20.4447 45.8672 21.1529 44.9075 21.76C44.827 21.8105 44.7537 21.8611 44.6731 21.9117C43.5523 22.5838 42.3143 22.974 41.025 23.2053C40.9517 23.2197 40.8858 23.2342 40.8126 23.2486C40.5122 23.2848 40.2192 23.292 39.9188 23.2848H39.4207C39.2669 23.2775 39.1277 23.2414 38.9812 23.2053C38.9812 23.2631 38.9812 23.3281 38.9738 23.3932C38.9226 24.2531 38.8347 25.1059 38.7467 25.9586C38.6149 27.2377 38.5343 28.5023 38.527 29.7887V30.4102C38.5123 32.4914 39.0617 34.6016 40.4536 36.2203C40.5071 36.2832 40.5613 36.3453 40.6148 36.4082C42.0506 38.0559 44.0651 38.8436 46.1675 39.2555V40.7008C45.7573 40.8959 45.457 41.0115 45.0028 40.9898C43.6768 40.9465 42.0726 41.3873 41.0396 42.2184C40.9884 42.2762 40.9444 42.3412 40.8931 42.399C40.7466 42.5797 40.6294 42.6664 40.4243 42.782L40.2631 42.876C40.058 42.9555 39.9408 42.9772 39.7284 42.941C38.4171 42.1678 37.3183 40.8887 36.7982 39.4723C36.7835 39.4289 36.7667 39.3834 36.7469 39.335C35.985 37.232 36.5271 35.0713 37.223 33.0334C37.5014 32.2313 37.7065 31.4291 37.7505 30.5836C37.7505 30.533 37.7505 30.4824 37.7578 30.4246C37.7871 29.543 37.5747 28.6758 37.3549 27.8303C36.4319 24.2893 36.5491 20.7338 38.4757 17.518C38.9226 16.8314 39.4573 16.21 40.0214 15.6174C40.0654 15.5668 40.1093 15.5234 40.1606 15.4729C42.4901 13.0592 46.065 12.1342 49.3322 12.1414L49.2956 12.127Z" fill="#844825"/>
<path d="M47.5228 19.2956C47.7205 19.4907 47.7718 19.7147 47.8597 19.9604C48.6362 22.0634 50.3431 23.5737 52.3723 24.5132C53.3539 24.954 54.3722 25.272 55.4344 25.431C55.449 25.5177 55.4563 25.6044 55.471 25.6983C55.6102 26.6739 55.8153 27.4978 56.3867 28.3216C56.6138 28.2204 56.753 28.112 56.9141 27.9313C57.317 27.5194 57.8078 27.3026 58.3939 27.281C58.9799 27.2882 59.4707 27.4399 59.9323 27.8085C60.5036 28.3866 60.6795 29.037 60.6721 29.8319C60.6282 30.8942 60.1447 31.8481 59.3682 32.5708C59.0605 32.8165 58.7382 32.961 58.3646 33.0911C58.3133 33.1056 58.262 33.1272 58.2107 33.1417C57.676 33.2935 57.1192 33.3007 56.6064 33.0911C56.5918 33.1345 56.5845 33.1706 56.5698 33.214C56.4453 33.6042 56.2914 33.9728 56.0937 34.3341C56.0644 34.3847 56.0351 34.4425 56.0058 34.4931C55.4637 35.4687 54.6945 36.372 53.7495 36.9935H53.603C53.6323 37.456 53.6616 37.9112 53.6909 38.3737C53.6982 38.5327 53.7129 38.6845 53.7202 38.8435C53.7348 39.0675 53.7495 39.2915 53.7641 39.5155C53.7641 39.5878 53.7715 39.6528 53.7788 39.7251C53.7788 39.7923 53.7839 39.8573 53.7934 39.9202C53.7934 39.978 53.7934 40.0358 53.8008 40.0937C53.8154 40.2093 53.874 40.3321 53.9766 40.4622C53.9253 41.3294 53.4418 42.1315 52.8045 42.7024L52.6726 42.8325C51.6544 43.8081 50.1746 44.2489 48.7754 44.2345C47.9037 44.1767 47.2444 43.8081 46.5924 43.2661C46.1749 42.7675 46.087 42.2183 46.1016 41.5896V41.3872C46.1016 41.1704 46.1016 40.9608 46.1089 40.744V40.3032C46.1089 39.9491 46.1163 39.5878 46.1236 39.2337C46.0796 39.2337 46.0357 39.2286 45.9917 39.2192C45.9331 39.2192 45.8745 39.2048 45.8159 39.1976C45.7573 39.1925 45.6987 39.1853 45.6401 39.1759C43.501 38.9085 41.4279 37.6149 40.1239 35.9601C39.0398 34.5147 38.4317 32.7153 38.4244 30.9231V29.9114C38.4244 27.6567 38.6588 25.4237 38.9592 23.1835H39.0837C41.677 23.263 44.0797 22.4536 46.065 20.7915C46.1236 20.7409 46.1895 20.6903 46.2481 20.6397C46.7023 20.2495 47.0832 19.8159 47.4568 19.3462L47.5301 19.2739L47.5228 19.2956Z" fill="#F7AD7A"/>
<path d="M59.6905 41.5967C59.9322 41.734 60.152 41.864 60.3498 42.0592V42.3482C60.4084 42.3627 60.4743 42.3844 60.5329 42.3988C60.826 42.5072 61.075 42.6445 61.3388 42.8107C61.39 42.8396 61.4413 42.8758 61.4926 42.9047C62.1665 43.331 62.7892 43.8369 63.3167 44.4367C63.3848 44.4945 63.4683 44.5162 63.5657 44.5017C63.7562 44.4222 63.8807 44.3138 64.0272 44.1765C64.0785 44.1332 64.1298 44.0826 64.1811 44.0392C64.2199 44.0053 64.2595 43.9691 64.2983 43.9308C66.2762 44.798 67.4849 46.4529 68.2687 48.4041C69.2504 50.9406 69.5214 53.7445 69.7192 56.4328C69.7192 56.5267 69.7338 56.6207 69.7412 56.7146C69.8071 57.6685 69.8071 58.6224 69.8144 59.5763V60.4219C69.8291 63.5488 69.3507 65.5982 68.3786 66.5717C68.3347 66.61 68.2907 66.649 68.2468 66.6873C68.2028 66.7256 68.1588 66.7646 68.1149 66.8029C67.7193 67.1209 67.2651 67.3304 66.7816 67.4822C66.7304 67.4605 66.6864 67.4316 66.6351 67.4099C66.6351 67.3449 66.6425 67.2871 66.6498 67.2221C66.8769 63.8906 66.8989 60.5086 66.5765 57.1844C66.5546 56.8808 66.5546 56.5845 66.5619 56.281C66.4886 56.3099 66.408 56.3461 66.3348 56.375C64.3422 57.1844 62.2838 57.524 60.1374 57.5095H59.0898C59.0898 57.5601 59.1045 57.6035 59.1045 57.6541C59.3828 59.9594 59.4927 62.2719 59.4561 64.5916C59.0092 64.5121 58.6063 64.3892 58.1961 64.2013C58.1448 64.1797 58.0862 64.1508 58.0349 64.1291C57.4709 63.8545 56.9947 63.4931 56.5259 63.0812C56.4746 63.0379 56.416 62.9873 56.3574 62.9367C54.3209 61.065 53.4418 58.1021 53.0096 55.4933C52.9949 55.4211 52.9876 55.356 52.973 55.2838C52.5701 52.8846 52.658 50.3047 53.0829 47.9054C53.0975 47.826 53.1122 47.7537 53.1268 47.6742C53.537 45.3762 54.2769 42.7385 56.0131 41.0402C57.0167 40.5199 58.7528 41.1125 59.6759 41.5894L59.6905 41.5967Z" fill="#FEB73E"/>
<path d="M25.4948 25.5105C27.2602 26.8113 28.4909 28.6251 28.9085 30.7642C28.9671 31.1834 28.9597 31.5953 28.9597 32.0216V32.4914C28.9597 33.1923 28.8792 33.8355 28.7107 34.522C28.696 34.5798 28.6814 34.6377 28.6667 34.6955C27.9635 37.5355 26.2932 40.1949 24.601 42.558C24.5424 42.6447 24.4765 42.7314 24.4179 42.8181C23.8978 43.548 23.3484 44.2562 22.799 44.9572C22.6817 45.1089 22.5572 45.2679 22.44 45.4197C22.2642 45.6437 22.0884 45.8677 21.9126 46.0918C21.8613 46.164 21.8027 46.2291 21.7441 46.3013C21.6928 46.3664 21.6415 46.4314 21.5902 46.4964C21.5463 46.5543 21.5023 46.6121 21.4584 46.6699C21.1654 46.9951 20.9309 47.1685 20.4914 47.1974C20.1764 47.183 19.9859 47.0529 19.7588 46.8433C19.3559 46.4097 19.0043 45.94 18.6454 45.4703C18.4989 45.2752 18.345 45.0873 18.1985 44.8994C15.1511 40.997 11.3857 36.0757 12.0157 30.8509C12.3674 28.7986 13.5907 26.8619 15.2683 25.5972C18.3084 23.4871 22.4327 23.3498 25.5021 25.5033L25.4948 25.5105Z" fill="#518CDD"/>
<path d="M40.5634 42.6376C40.4682 42.8905 40.351 43.1001 40.1972 43.3241C37.7138 47.1542 36.6736 53.3112 37.6552 57.7556C37.8383 58.5144 38.0361 59.2659 38.3658 59.9813C38.3951 60.0464 38.4244 60.1187 38.461 60.1909C38.6148 60.5089 38.754 60.7546 39.0251 60.9931V61.1376C39.1203 61.1882 39.2155 61.2315 39.3181 61.2821C39.2595 62.8503 38.9298 64.2089 38.3804 65.6831C38.2632 65.9938 38.1607 66.3046 38.0581 66.6153C38.0361 66.6876 38.0141 66.7599 37.9922 66.8321C37.9555 66.955 37.9116 67.0851 37.875 67.2079C37.7651 67.5476 37.6698 67.7499 37.3402 67.9306C36.8274 68.1112 36.3 68.0968 35.7652 68.0896H35.5088C34.6078 68.0823 33.7433 67.9884 32.8569 67.7933C32.8057 67.786 32.7544 67.7716 32.7031 67.7571C32.3002 67.6632 31.9925 67.497 31.6995 67.2007C31.7215 66.1673 32.0145 65.0978 32.205 64.086C32.2343 63.9343 32.2636 63.7825 32.2929 63.6308C33.0203 59.8245 33.6408 57.0112 34.1536 55.1901C34.1777 55.0984 34.2027 55.0073 34.2268 54.9155C34.251 54.8237 34.273 54.7472 34.2928 54.6843C34.3294 54.4675 34.3221 54.3302 34.2561 54.1206C34.1096 53.9688 33.9558 53.8388 33.7873 53.7087C33.7089 53.5981 33.6774 53.4652 33.6921 53.3112C33.7433 53.0511 33.8093 52.8126 33.8972 52.5597C33.9118 52.5163 33.9265 52.4729 33.9411 52.4224C33.9924 52.2778 34.0437 52.1333 34.095 51.9815C34.1096 51.931 34.1316 51.8804 34.1462 51.8298C35.2304 48.7513 36.4611 45.5499 39.1643 43.4976C39.228 43.4491 39.291 43.4014 39.3547 43.353C39.9752 42.871 40.3752 42.6304 40.5561 42.6304L40.5634 42.6376Z" fill="#F7AD79"/>
<path d="M59.6904 41.5969C59.9322 41.7343 60.1519 41.8643 60.3497 42.0594V42.3485C60.2765 42.3702 60.2032 42.3919 60.13 42.4135C59.0824 42.8688 58.5476 44.3936 58.1521 45.3837C57.8664 46.1063 57.6613 46.8434 57.4781 47.6022C57.4635 47.6745 57.4415 47.7468 57.4268 47.819C57.1045 49.2065 57.0166 50.594 57.0239 52.0177V52.8053C57.0166 55.3491 57.4635 58.5866 59.2362 60.5811C59.4707 60.8919 59.434 61.311 59.4487 61.6868C59.4487 61.7518 59.4487 61.8241 59.456 61.8964C59.4926 62.7997 59.4853 63.7102 59.478 64.6135C59.0311 64.5341 58.6282 64.4112 58.218 64.2233C58.1667 64.2016 58.1081 64.1727 58.0568 64.1511C57.4928 63.8764 57.0166 63.5151 56.5478 63.1032C56.4965 63.0598 56.4379 63.0093 56.3793 62.9587C54.3428 61.087 53.4637 58.1241 53.0315 55.5153C53.0168 55.443 53.0095 55.378 52.9949 55.3057C52.592 52.9065 52.6799 50.3266 53.1048 47.9274C53.1194 47.8479 53.1341 47.7757 53.1487 47.6962C53.5589 45.3981 54.2988 42.7604 56.035 41.0622C57.0386 40.5419 58.7747 41.1344 59.6978 41.6114L59.6904 41.5969Z" fill="#E35747"/>
<path d="M66.5692 56.2954C66.8476 59.6269 66.9794 62.9655 66.7963 66.3042C66.7963 66.362 66.7963 66.4198 66.7889 66.4776C66.7545 67.0897 66.7084 67.4532 66.6498 67.5688C66.567 67.5978 66.474 67.6245 66.3714 67.6483C66.3128 67.6628 66.2542 67.6772 66.1883 67.6917C66.1223 67.7062 66.0564 67.7206 65.9905 67.7351C65.9245 67.7495 65.8513 67.764 65.778 67.7856C63.7195 68.2409 61.5805 68.5011 59.4707 68.436C59.3608 68.2265 59.3901 68.0386 59.3901 67.8001V66.0151C59.4048 63.4497 59.3901 60.8843 59.1191 58.3261C59.0898 58.0587 59.0898 57.7985 59.0898 57.5239H59.2656C61.683 57.4589 63.9979 57.271 66.2615 56.3604C66.3589 56.3221 66.4571 56.3026 66.5545 56.3026L66.5692 56.2954Z" fill="#F7AD7A"/>
<path d="M64.2982 43.9383C66.2761 44.8055 67.4849 46.4603 68.2687 48.4115C69.2503 50.948 69.5214 53.752 69.7191 56.4402C69.7191 56.5342 69.7338 56.6281 69.7411 56.7221C69.8071 57.676 69.8071 58.6299 69.8144 59.5838V60.4293C69.829 63.5562 69.3507 65.6057 68.3786 66.5791C68.3346 66.6152 68.2907 66.6586 68.2467 66.6947C68.2028 66.7309 68.1588 66.7742 68.1149 66.8104C67.7193 67.1283 67.2651 67.3379 66.7816 67.4896C66.7303 67.468 66.6864 67.4391 66.6351 67.4174C66.6351 67.3545 66.6402 67.2924 66.6497 67.2295C66.8915 63.7607 66.8915 60.2414 66.5399 56.7871C66.5179 56.5848 66.5179 56.4186 66.5618 56.2162C66.701 56.0789 66.8256 56.0066 67.0087 55.9271C67.1208 55.8787 67.216 55.7826 67.2944 55.6381C67.2944 55.4986 67.2797 55.349 67.2504 55.19C67.2504 55.1395 67.2358 55.0961 67.2285 55.0455C67.2138 54.9371 67.1918 54.8359 67.1772 54.7275C67.1479 54.5469 67.1186 54.3662 67.0966 54.1855C66.5765 50.7818 65.6608 47.3998 63.4924 44.6537C63.551 44.6103 63.6023 44.567 63.6609 44.5236C63.8148 44.4008 63.9613 44.2707 64.1004 44.1262C64.1664 44.0611 64.2323 43.9961 64.2982 43.9238V43.9383Z" fill="#E25745"/>
<path d="M45.2518 40.9029L44.8856 41.2643C44.8416 41.3076 44.805 41.351 44.761 41.3943C44.6973 41.4522 44.6167 41.4811 44.5193 41.4811C44.4973 41.5244 44.4827 41.5606 44.4607 41.6039C44.3654 41.7846 44.2482 41.9219 44.109 42.0736C43.7135 42.5578 43.4131 43.0926 43.1274 43.649C43.1054 43.6924 43.0835 43.743 43.0542 43.7863C40.7466 48.2885 40.1972 53.8168 39.6112 58.7526C39.6016 58.8198 39.5943 58.8877 39.5892 58.9549C39.4939 59.7281 39.406 60.5086 39.3181 61.2818C38.7028 60.9928 38.3951 60.2918 38.146 59.692C37.9776 59.215 37.8384 58.7309 37.7065 58.2467C37.6845 58.1672 37.6626 58.0877 37.6333 58.001C36.4245 53.4555 37.7651 47.5731 39.9774 43.5045C40.102 43.2949 40.2485 43.0998 40.395 42.9047C40.4682 42.818 40.5247 42.7045 40.5635 42.565H40.71C40.7298 42.5217 40.7488 42.4783 40.7686 42.435C41.1495 41.7557 42.1165 41.4594 42.8271 41.2498C43.6402 41.0258 44.4094 40.874 45.2592 40.9029H45.2518Z" fill="#E35747"/>
<path d="M24.4692 27.3824C24.5498 27.4402 24.6303 27.498 24.7109 27.5558C25.9416 28.5097 26.7181 29.9334 26.9232 31.451C27.0478 33.272 26.6815 34.6595 25.6339 36.1554C25.5753 36.2349 25.5241 36.3144 25.4654 36.4012C24.5644 37.5502 23.0553 38.2656 21.6415 38.5691C20.3009 38.6847 18.9897 38.6847 17.7736 38.0633C17.6637 38.0127 17.5538 37.9549 17.444 37.897C15.7957 37.0082 14.7921 35.6207 14.2354 33.8719C13.8911 32.1013 14.2207 30.3308 15.217 28.8277C16.2426 27.4763 17.6564 26.414 19.3852 26.1322C21.3045 25.966 22.9308 26.1828 24.4692 27.3752V27.3824Z" fill="#FDFEFE"/>
<path d="M40.5635 42.6372C40.4683 42.8901 40.3511 43.0997 40.1972 43.3237C38.1973 46.4022 37.5527 50.4347 37.4062 54.0263C37.4062 54.1708 37.3915 54.3153 37.3842 54.4599C37.3696 54.8067 37.3549 55.1536 37.3402 55.5077C36.8765 55.4116 36.5418 55.3198 36.3366 55.2331C36.278 55.2093 36.2194 55.1847 36.1608 55.1608C36.1022 55.1392 36.0436 55.1103 35.985 55.0886C35.9264 55.0669 35.8678 55.038 35.8092 55.0163C35.399 54.8429 35.0107 54.6478 34.6298 54.4237V54.2792C34.5785 54.2575 34.5199 54.2431 34.4686 54.2214C34.2562 54.1274 34.117 54.0263 33.9485 53.8673C33.8972 53.8239 33.846 53.7733 33.7947 53.73C33.6408 53.4843 33.7068 53.3325 33.7581 53.0507C33.802 52.8917 33.8533 52.7327 33.9119 52.5737C33.9265 52.5304 33.9412 52.487 33.9558 52.4364C34.0071 52.2919 34.0584 52.1474 34.1097 51.9956C34.1243 51.945 34.1463 51.8944 34.161 51.8438C35.2451 48.7653 36.4758 45.564 39.179 43.5116C39.2427 43.4632 39.3057 43.4155 39.3694 43.3671C39.9899 42.8851 40.3899 42.6444 40.5708 42.6444L40.5635 42.6372Z" fill="#FEB73D"/>
<path d="M53.3831 38.229H53.5296C53.6029 38.453 53.6176 38.6265 53.6249 38.8649C53.6249 38.9444 53.6249 39.0239 53.6322 39.1106C53.6322 39.1974 53.6322 39.2769 53.6395 39.3636C53.6395 39.4503 53.6395 39.537 53.6469 39.6237C53.6542 39.8333 53.6615 40.0429 53.6688 40.2524H53.8153C53.9128 40.397 53.9597 40.522 53.9545 40.6282C53.7714 41.4448 53.4271 42.1386 52.7898 42.7095L52.6579 42.8396C51.6397 43.8151 50.1599 44.256 48.7607 44.2415C47.889 44.1837 47.2297 43.8151 46.5777 43.2731C46.0869 42.6806 46.0796 42.0591 46.1015 41.3292V41.0546C46.1015 40.8378 46.1089 40.6138 46.1162 40.397C46.1946 40.4064 46.2722 40.4187 46.3506 40.4331C48.6655 40.7149 50.8925 40.1729 52.7458 38.7638C52.9605 38.5903 53.1685 38.4118 53.3685 38.229H53.3831Z" fill="#F7AD7A"/>
<path d="M53.4564 37.145H53.5297C53.6103 37.5136 53.6616 37.8677 53.5297 38.229C53.2147 38.6409 52.7239 38.9083 52.2843 39.1685C52.2257 39.2046 52.1745 39.2335 52.1159 39.2696C50.3431 40.3392 48.2846 40.8739 46.2041 40.4692C46.1551 40.4208 46.1287 40.3103 46.1236 40.1368V39.2407L45.8305 39.1685C46.0796 39.089 46.2041 39.0962 46.4605 39.1685C46.7975 39.2552 47.1198 39.2696 47.4641 39.2696H47.6546C49.6691 39.2335 51.984 38.5903 53.4491 37.1522L53.4564 37.145Z" fill="#E59562"/>
<path d="M58.0788 52.1187C58.1719 52.157 58.2671 52.2249 58.3645 52.321C58.3843 52.4272 58.4012 52.545 58.4158 52.6751C58.4158 52.7474 58.4305 52.8196 58.4378 52.8991C58.4378 52.9786 58.4524 53.0581 58.4598 53.1448C58.4671 53.2243 58.4744 53.311 58.4817 53.3978C58.5037 53.6651 58.533 53.9253 58.555 54.1927C58.577 54.4528 58.5989 54.7202 58.6282 54.9804C58.6429 55.1466 58.6575 55.3056 58.6722 55.4718C58.7088 55.8692 58.7528 56.2667 58.8041 56.6642C58.8136 56.7364 58.8238 56.8109 58.8334 56.8882C58.8846 57.1122 58.9799 57.264 59.1044 57.4591V57.6759C58.8993 57.777 58.7455 57.7698 58.5184 57.7481C58.1594 57.5241 58.1008 57.1194 58.0056 56.7364C57.9616 56.4763 57.9396 56.2161 57.9177 55.956C57.9177 55.8837 57.903 55.8114 57.8957 55.7392C57.881 55.5874 57.8737 55.4356 57.8591 55.2839C57.8371 55.0526 57.8224 54.8286 57.8005 54.5974C57.6781 53.1614 57.6811 52.3593 57.8078 52.1909C57.8862 52.1382 57.9763 52.1165 58.0788 52.1259V52.1187Z" fill="#E89136"/>
<path d="M48.3944 33.8428C48.4457 33.8572 48.497 33.8789 48.5483 33.8934C48.5973 34.0184 48.6215 34.1629 48.6215 34.327C48.182 34.934 47.2077 35.317 46.4971 35.4832C45.5082 35.5771 44.7097 35.3748 43.9332 34.7605C43.7354 34.5654 43.6548 34.4715 43.6108 34.2041C43.6182 34.1463 43.6328 34.0957 43.6401 34.0379C43.7867 33.9418 43.9185 33.8984 44.0357 33.9078C44.2482 33.9729 44.3507 34.0596 44.5046 34.2113C44.9075 34.6016 45.325 34.7244 45.8891 34.7244C46.7315 34.7172 47.3029 34.4354 47.9769 33.9367C48.1087 33.8645 48.2457 33.8355 48.3871 33.85L48.3944 33.8428Z" fill="#B46A3E"/>
<path d="M50.453 27.9676C50.768 28.1338 50.9291 28.3578 51.039 28.6902C51.105 29.1961 51.0683 29.6513 50.746 30.0633C50.5189 30.2584 50.3797 30.3451 50.0794 30.3812C49.8303 30.3451 49.6985 30.2873 49.5007 30.1355C49.2296 29.7597 49.1344 29.3695 49.2076 28.907C49.4347 28.3 49.7204 27.8158 50.453 27.9676Z" fill="#2B2A2B"/>
<path d="M42.1751 27.3169C42.4169 27.4109 42.5194 27.5048 42.6733 27.7072C42.8271 28.1552 42.8491 28.6755 42.6733 29.1236C42.4923 29.4322 42.3019 29.615 42.1019 29.6728C41.8674 29.7162 41.677 29.7378 41.4572 29.6367C41.1569 29.4054 41.0323 29.1525 40.9811 28.7912C40.9737 28.2203 41.0763 27.8445 41.4645 27.4253C41.7209 27.2808 41.8821 27.2808 42.1751 27.3169Z" fill="#29282A"/>
<path d="M51.1781 25.2649C51.7495 25.5033 52.3283 25.8574 52.6579 26.3777C52.6484 26.6285 52.5993 26.7969 52.5114 26.8836C52.277 26.9125 52.1744 26.9053 51.9839 26.768C51.9327 26.7174 51.8814 26.6668 51.8301 26.6162C51.2367 26.0598 50.68 25.9369 49.8815 25.9586C49.735 25.9586 49.5885 25.9586 49.4347 25.9514C49.3372 25.8553 49.2786 25.7367 49.2588 25.5973C49.2391 25.4578 49.3006 25.3443 49.442 25.2576C49.9548 25.0264 50.658 25.1059 51.1781 25.2721V25.2649Z" fill="#814421"/>
<path d="M42.0871 24.4771H42.241C42.6146 24.4771 42.8783 24.5421 43.2079 24.7155C43.2614 24.8601 43.2863 25.0046 43.2812 25.1491C43.2761 25.2937 43.2028 25.3659 43.0614 25.3659C42.9222 25.3515 42.783 25.337 42.6512 25.3153C41.9846 25.2214 41.5084 25.2864 40.937 25.655C40.8711 25.7128 40.8051 25.7706 40.7392 25.8284C40.6271 25.9057 40.4777 25.939 40.2924 25.9296C40.2118 25.9151 40.1385 25.8935 40.0579 25.8718C40.014 25.7706 39.9898 25.6499 39.9847 25.5105C40.3583 24.7878 41.3326 24.4843 42.0944 24.4843L42.0871 24.4771Z" fill="#814421"/>
<path d="M45.164 29.4203C45.2716 29.4636 45.3493 29.5091 45.3984 29.5576C45.4225 29.6826 45.4225 29.8271 45.3984 29.9912C45.2812 30.1285 45.1566 30.2513 45.0174 30.3742C44.7684 30.6054 44.6072 30.8222 44.5559 31.1546C44.5999 31.4148 44.6731 31.4871 44.8856 31.6533C45.0321 31.7328 45.1786 31.805 45.3251 31.8701V32.3037C45.0101 32.3831 44.849 32.3904 44.5486 32.2603C44.2263 32.0507 43.9845 31.7978 43.86 31.4365C43.7941 30.815 44.0212 30.4681 44.4021 29.9839C44.7296 29.5988 44.983 29.4109 45.164 29.4203Z" fill="#BE6F42"/>
<path d="M65.5363 52.8848H65.6095C65.6681 53.3473 65.6901 53.7953 65.6901 54.265V54.9082C65.6169 54.9299 65.5436 54.9588 65.4703 54.9805C65.463 54.2795 65.4703 53.5857 65.5436 52.8848H65.5363Z" fill="#E56351"/>
<path d="M62.5401 28.9071C62.7086 29.0372 62.7599 29.1095 62.7965 29.319C62.7965 29.3985 62.8038 29.4708 62.8112 29.5575C62.8112 29.6442 62.8258 29.7237 62.8258 29.8104C62.831 29.8972 62.8353 29.9861 62.8405 30.0778C62.8405 30.1645 62.8551 30.2585 62.8551 30.3452C62.8698 30.562 62.8844 30.786 62.8991 31.0028H62.7526C62.7452 30.9161 62.7306 30.8294 62.7233 30.7354C62.7086 30.6198 62.694 30.5042 62.6866 30.3886C62.6815 30.3308 62.6742 30.2729 62.6647 30.2151C62.6595 30.0272 62.6156 29.856 62.5328 29.7021V28.8999L62.5401 28.9071Z" fill="#884C2E"/>
<path d="M39.0251 63.5224C39.0983 63.7608 39.0983 63.9487 39.069 64.1872C39.0617 64.2522 39.0544 64.3173 39.047 64.3823C39.047 64.4329 39.0324 64.4835 39.0251 64.5269C38.9738 64.5052 38.9298 64.4763 38.8786 64.4546L38.6588 64.6714C38.776 64.2812 38.8932 63.8981 39.0251 63.5151V63.5224Z" fill="#FCF6ED"/>
<path d="M36.681 34.7603C36.7835 34.9265 36.8275 35.0204 36.8128 35.2228C36.7982 35.2806 36.7835 35.3384 36.7689 35.3962C36.7542 35.454 36.7396 35.5118 36.7249 35.5696C36.7103 35.613 36.7029 35.6563 36.6883 35.6997H36.5418C36.5271 35.3528 36.5564 35.0854 36.6883 34.7603H36.681Z" fill="#79371A"/>
<path d="M46.6436 20.3071C46.6436 20.4517 46.6092 20.5673 46.5411 20.654C46.2429 20.9431 45.9843 21.1165 45.7646 21.1743C46.0356 20.8491 46.3067 20.5673 46.6436 20.3071Z" fill="#F8BC86"/>
<path d="M45.6181 40.9752C45.5741 40.9824 45.5228 40.9897 45.4789 40.9969C45.4276 41.0113 45.3763 41.033 45.325 41.0475C45.3031 41.1197 45.2738 41.192 45.2518 41.2643C45.0393 41.3655 44.9075 41.4088 44.6657 41.4088C44.7463 41.3365 44.8269 41.2643 44.9075 41.1992C44.9514 41.1631 44.9954 41.1197 45.0467 41.0764C45.2591 40.9102 45.3617 40.8885 45.6181 40.9752Z" fill="#FAC53F"/>
<path d="M40.5634 42.6372C40.4755 42.8735 40.3781 43.018 40.2704 43.0708V42.9263C40.1752 42.9479 40.0799 42.9769 39.9774 42.9985C40.2118 42.7579 40.4074 42.6372 40.5634 42.6372Z" fill="#F7BD41"/>
<path d="M20.5281 37.5066C15.3709 36.0613 16.2134 28.8925 16.2134 28.8925C18.7114 29.2032 20.5135 27.6134 20.5208 27.6206C20.6453 27.729 22.4254 29.1888 24.8282 28.8925C24.8282 28.8925 25.6707 36.0613 20.5135 37.5066H20.5281ZM20.5208 36.5093C24.6378 35.3531 23.9638 29.6368 23.9638 29.6368C22.0445 29.8753 20.6307 28.7046 20.5281 28.6179C20.5281 28.6179 19.085 29.8825 17.0924 29.6368C17.0924 29.6368 16.4185 35.3531 20.5354 36.5093H20.5208Z" fill="#FBD13B"/>
<path d="M20.5207 35.8154C23.9124 34.8615 23.363 30.1498 23.363 30.1498C21.7807 30.3449 20.6159 29.3838 20.528 29.3115C20.528 29.3115 19.334 30.3521 17.6931 30.1498C17.6931 30.1498 17.1363 34.8688 20.528 35.8227H20.5207V35.8154Z" fill="#FBD13B"/>
<path d="M23.3557 30.1425C21.7734 30.3376 20.6086 29.3765 20.5207 29.3042C20.5207 29.3042 20.5134 29.3042 20.5134 29.3114V35.8081H20.5207C23.9125 34.8542 23.3557 30.1425 23.3557 30.1425Z" fill="#E6BF36"/>
</g>
</g>
<defs>
<clipPath id="clip0_1673_1155">
<rect width="74" height="69" fill="white"/>
</clipPath>
</defs>
</svg>
