<svg width="69" height="69" viewBox="0 0 69 69" fill="none" xmlns="http://www.w3.org/2000/svg">
<mask id="mask0_1673_1202" style="mask-type:luminance" maskUnits="userSpaceOnUse" x="0" y="0" width="69" height="69">
<path d="M0 0H69V55.3139C69 62.8675 62.8675 69 55.3139 69H0V0Z" fill="white"/>
</mask>
<g mask="url(#mask0_1673_1202)">
<path d="M37.9635 107.219C59.1013 107.219 76.2369 90.3492 76.2369 69.5389C76.2369 48.7285 59.1013 31.8584 37.9635 31.8584C16.8256 31.8584 -0.309967 48.7285 -0.309967 69.5389C-0.309967 90.3492 16.8256 107.219 37.9635 107.219Z" fill="#002570"/>
<path d="M43.4754 122.172C64.6132 122.172 81.7488 105.302 81.7488 84.4915C81.7488 63.6812 64.6132 46.811 43.4754 46.811C22.3376 46.811 5.20195 63.6812 5.20195 84.4915C5.20195 105.302 22.3376 122.172 43.4754 122.172Z" fill="#0246B2"/>
<path d="M50.0183 18.0386H50.18C51.0357 18.0386 51.878 18.0992 52.7203 18.2407C52.9359 18.2744 53.1448 18.2946 53.3604 18.3148C53.5559 18.3418 53.7378 18.4159 53.9197 18.49C54.3308 18.645 54.7418 18.7865 55.1663 18.9011C55.3954 18.9617 55.5976 19.0763 55.8064 19.1841C55.8536 19.2043 55.9008 19.2312 55.9479 19.2582C56.3185 19.4469 56.6689 19.649 57.0193 19.8714C57.1339 19.9455 57.2821 19.9725 57.4573 19.9522C57.4708 19.9927 57.491 20.0331 57.5045 20.0735C57.619 20.2689 57.7471 20.3498 57.9357 20.4778C58.2929 20.7339 58.623 21.0034 58.9397 21.2999C58.9936 21.3538 59.0543 21.4077 59.1149 21.4616C60.2267 22.6543 61.6351 24.7229 61.6351 26.421L61.7698 26.4884C61.79 26.6299 61.8102 26.7781 61.8237 26.9196C61.8372 27.0881 61.8642 27.2498 61.8844 27.4183C62.1 28.9209 62.1472 30.437 62.2078 31.9531C62.2752 34.042 62.6593 36.0635 63.3533 38.0108C63.4207 38.1456 63.4544 38.2602 63.4544 38.3478C63.5218 38.368 63.5892 38.3949 63.6565 38.4151V38.6173C63.697 38.6981 63.7441 38.779 63.8048 38.8666C63.8385 38.9138 63.8722 38.9677 63.9059 39.0148C63.9395 39.0687 63.98 39.1227 64.0137 39.1766C65.1861 41.0026 66.0958 42.9567 65.6645 45.1736C65.3748 46.4809 64.7414 47.5522 63.8115 48.5023C63.7374 48.5765 63.6633 48.6708 63.5892 48.7921C63.6161 49.0953 63.7037 49.3783 63.7913 49.6681C64.236 51.2111 64.4651 52.7879 64.5999 54.3849C64.5999 54.4522 64.6134 54.5129 64.6201 54.5803C64.6336 54.7487 64.6471 54.9239 64.6605 55.0924C64.6605 55.1395 64.6605 55.1935 64.674 55.2406C64.6875 55.4562 64.6538 55.618 64.5797 55.719C64.3641 55.8605 64.1889 55.9279 63.9261 55.9279V56.0627C63.9395 56.6826 63.8722 57.2823 63.8048 57.8955C63.8048 57.9494 63.7913 58.0033 63.7846 58.0572C63.4005 61.3792 62.6391 63.5691 61.4935 64.6203C61.3655 64.6877 61.2375 64.7618 61.1095 64.8292C60.9949 64.9033 60.8938 64.9909 60.8197 65.092C60.7725 65.4356 60.8197 65.7523 60.8601 66.096C60.9073 66.4868 60.9343 66.8776 60.9612 67.2685C60.9747 67.41 60.9814 67.5515 60.9949 67.693C60.9949 67.7806 61.0084 67.8682 61.0151 67.9558C61.0151 68.0366 61.0286 68.1107 61.0353 68.1916C61.0219 68.3264 60.9747 68.4477 60.8938 68.5555C60.6917 68.7037 60.4895 68.7509 60.2537 68.8048C60.2065 68.8183 60.1526 68.825 60.0987 68.8385C59.9303 68.8722 59.7685 68.9059 59.6001 68.9395C59.5462 68.953 59.4923 68.9598 59.4384 68.9732C58.5489 69.1552 57.6527 69.263 56.7498 69.3573C56.6959 69.3573 56.642 69.3708 56.5881 69.3775C56.4331 69.391 56.2714 69.4112 56.1164 69.4247C56.0692 69.4247 56.0288 69.4247 55.9816 69.4382C55.0248 69.5325 54.0612 69.5595 53.0976 69.5595H51.5411C49.7083 69.5595 47.8822 69.5325 46.0561 69.3371C45.9551 69.3236 45.854 69.3169 45.7529 69.3034C44.7422 69.2023 43.7449 69.0608 42.7409 68.8924C42.66 68.8789 42.5792 68.8654 42.4983 68.852C42.4242 68.8385 42.3433 68.825 42.2692 68.8115C42.1951 68.798 42.1277 68.7846 42.0738 68.7778C41.9458 68.7441 41.7234 68.6633 41.4067 68.5285V67.2482C41.3596 67.228 41.3191 67.2011 41.272 67.1809C41.3191 67.1606 41.3596 67.1337 41.4067 67.1135C41.4337 66.6553 41.4674 66.1971 41.4943 65.7389C41.4943 65.5839 41.5145 65.4289 41.5213 65.2739C41.5752 64.3845 41.6224 63.495 41.6089 62.6056C41.3596 62.6999 41.1709 62.8077 40.9553 62.9627C40.1601 63.5287 39.3583 63.7915 38.3812 63.7848H38.1589C37.1279 63.7645 36.1846 63.495 35.2749 63.0099C35.2277 62.9829 35.1738 62.956 35.1266 62.929C34.4663 62.5786 34.0014 62.2889 33.7251 62.0665C33.6038 62.0328 33.4892 62.0059 33.3882 61.9991C33.3814 61.9587 33.3747 61.9115 33.3612 61.8711C33.3477 61.8239 33.3343 61.7768 33.3208 61.7296C33.2736 61.7094 33.2332 61.6824 33.186 61.6622C33.1658 61.7094 33.1389 61.7498 33.1186 61.797L33.0513 61.5274H32.8693C30.922 61.5948 28.9813 61.5948 27.034 61.5813H23.4088C22.836 61.5813 22.3037 61.4129 21.8792 61.0221C21.832 60.9816 21.7849 60.9412 21.7377 60.9008C21.3671 60.4561 21.1986 59.9844 21.0841 59.4251C21.0706 59.3577 21.0571 59.2903 21.0369 59.2162C20.9897 58.9871 20.9426 58.758 20.8954 58.5289C20.8617 58.3672 20.828 58.1987 20.7876 58.037C20.7202 57.7271 20.6596 57.4238 20.5922 57.1139C20.4642 56.5007 20.3294 55.8875 20.2014 55.2743C19.7027 52.9766 19.2243 50.6788 18.7526 48.3811C18.6313 47.7746 18.5033 47.1682 18.382 46.5617C18.3685 46.4943 18.3551 46.4337 18.3416 46.3663C18.2809 46.09 18.227 45.8138 18.1529 45.5375C18.1058 45.3354 18.0788 45.1736 18.0923 44.9647H18.227C18.227 44.8906 18.227 44.8098 18.2338 44.7356C18.2877 44.3044 18.5168 43.9742 18.847 43.6979C19.5006 43.2532 20.1138 43.2061 20.8819 43.1926H21.0908C21.3199 43.1926 21.5558 43.1926 21.7849 43.1791H22.0342C24.1635 43.1454 26.2928 43.1454 28.4221 43.1454H31.744C32.7076 43.1454 33.6712 43.1454 34.6348 43.1791H35.0188C36.3059 43.2195 37.1684 43.4688 37.6131 43.9338C38.0578 44.5133 38.1791 45.2208 38.3206 45.9148C38.3408 46.0092 38.361 46.1103 38.3812 46.2046C38.4351 46.4606 38.4891 46.71 38.543 46.966C38.6306 47.3703 38.7114 47.7813 38.799 48.1856C38.826 48.3271 38.8597 48.4687 38.8866 48.6102C38.9068 48.6978 38.9203 48.7786 38.9405 48.8662C38.954 48.9403 38.9742 49.0145 38.9877 49.0953C39.0079 49.2099 39.0483 49.3177 39.0955 49.4053C39.109 49.3446 39.1292 49.2907 39.1427 49.2301C39.5267 47.9835 40.1467 46.7234 41.0226 45.7464C41.0766 45.6857 41.1237 45.6251 41.1776 45.5577C41.09 45.3017 40.9957 45.2612 40.7801 45.113C39.9445 44.52 39.3852 43.799 38.927 42.8961C38.9001 42.8489 38.8799 42.8018 38.8529 42.7546C38.7518 42.5524 38.6845 42.4109 38.6845 42.1886C38.6373 42.1684 38.5969 42.1414 38.5497 42.1212C38.5295 41.9056 38.516 41.6899 38.5093 41.4743C38.5093 41.353 38.4958 41.2317 38.4823 41.1104C38.4351 41.0902 38.3947 41.0633 38.3475 41.0431C38.388 39.7561 38.5699 38.5769 38.9338 37.337C39.0483 36.9395 39.1157 36.6025 39.0888 36.1915H39.2235C39.4728 34.7765 39.5335 33.4355 39.4257 32.0003C39.3583 31.0367 39.3448 30.0799 39.3448 29.1163V28.9209C39.3448 27.8428 39.3785 26.7781 39.6413 25.727C39.6548 25.6663 39.6683 25.6124 39.6817 25.5518C40.1804 23.6246 41.2113 21.6772 42.7948 20.4239C42.8555 20.37 42.9228 20.3228 42.9835 20.2689C43.4686 19.8781 43.9673 19.5682 44.5131 19.2717C44.695 19.1706 44.85 19.0628 45.0117 18.9415C45.1802 18.8876 45.3486 18.8337 45.5171 18.7865C45.8405 18.6922 46.1572 18.5776 46.4739 18.4631C46.8782 18.3148 47.2825 18.2609 47.707 18.2003C47.7879 18.1868 47.8687 18.1733 47.9496 18.1666C48.6234 18.0723 49.2838 18.0453 49.9643 18.0453H50.0183V18.0386ZM20.2755 45.1063C20.1272 45.3219 20.1272 45.524 20.1609 45.7801C20.1744 45.8609 20.1946 45.9418 20.2081 46.0294C20.2148 46.0766 20.2283 46.117 20.235 46.1642C20.262 46.3057 20.289 46.4472 20.3226 46.5887C20.3429 46.683 20.3631 46.7773 20.3766 46.8717C20.4709 47.3366 20.5652 47.7948 20.673 48.2598C20.6933 48.3743 20.7202 48.4821 20.7404 48.5967C20.7606 48.7045 20.7876 48.819 20.8078 48.9269C20.8213 48.9875 20.8348 49.0549 20.8482 49.1223C20.8617 49.1896 20.8752 49.257 20.8887 49.3312C20.9021 49.3985 20.9156 49.4727 20.9358 49.5468C20.983 49.7691 21.0302 49.9982 21.0773 50.2206C21.138 50.5171 21.1986 50.8136 21.266 51.1101C21.2795 51.1774 21.293 51.2448 21.3064 51.3189C21.3199 51.3796 21.3334 51.447 21.3469 51.5144C21.3603 51.5683 21.3671 51.6289 21.3806 51.6828C21.4008 51.7906 21.4277 51.8984 21.4479 52.0062C21.4884 52.2017 21.5288 52.3971 21.5692 52.5992C21.5894 52.6801 21.6029 52.7609 21.6231 52.8485C21.6299 52.8957 21.6433 52.9361 21.6501 52.9833C21.677 53.1248 21.7107 53.2663 21.7377 53.4078C21.832 53.866 21.9331 54.3242 22.0274 54.7824C22.0813 55.0385 22.1352 55.2945 22.1891 55.5506C22.2026 55.5978 22.2094 55.6517 22.2228 55.7056C22.3441 56.2985 22.4722 56.8982 22.5867 57.4912C22.6069 57.599 22.6271 57.7068 22.6474 57.8146C22.681 57.9966 22.7215 58.1853 22.7552 58.3672C22.8697 58.9534 22.9977 59.3038 23.5031 59.6609C23.7255 59.7687 23.9681 59.7351 24.2106 59.7351H38.3206C38.4486 59.4723 38.4958 59.2027 38.4554 58.9265C38.4351 58.886 38.4217 58.8456 38.4015 58.8052C38.2936 58.5559 38.2532 58.4211 38.2869 58.1448C38.4149 57.8618 38.5767 57.6597 38.8597 57.5182C38.8394 57.3834 38.8125 57.2486 38.7923 57.1139C38.7249 57.1341 38.6575 57.161 38.5901 57.1812V57.0465C38.4351 56.9656 38.3139 56.9589 38.1387 56.9387C38.078 56.9387 38.0106 56.9252 37.9433 56.9185C37.8085 56.905 37.6805 56.8848 37.5457 56.8713C37.101 56.8174 36.6899 56.723 36.2924 56.5074C36.1104 56.2716 36.0902 56.157 36.097 55.8605C36.1711 55.6045 36.2183 55.5169 36.4271 55.3619C36.8584 55.1935 37.2762 55.2137 37.7344 55.2204H38.516C38.3408 54.1086 38.0848 53.017 37.8422 51.9187H37.64C37.6872 51.8984 37.7276 51.8715 37.7748 51.8513C37.667 51.0292 37.485 50.2273 37.3031 49.4255H37.1683C37.1212 49.2233 37.1077 49.0684 37.1347 48.9605C37.1751 48.7921 37.1549 48.691 37.1144 48.5226C37.101 48.4687 37.0875 48.408 37.0808 48.3541C37.0673 48.2935 37.0538 48.2395 37.0403 48.1789C37.0268 48.1183 37.0134 48.0644 36.9999 48.0037C36.9595 47.8083 36.9123 47.6061 36.8651 47.4107C36.818 47.2221 36.7775 47.0334 36.7371 46.8515C36.7169 46.7706 36.7034 46.6897 36.6832 46.6089C36.6495 46.4404 36.6091 46.272 36.5754 46.0968C36.5552 46.0159 36.5417 45.9351 36.5215 45.8542C36.508 45.7801 36.4878 45.706 36.4743 45.6318C36.4474 45.5038 36.3867 45.4027 36.2856 45.3219H36.0161C36.0363 45.2545 36.0633 45.1871 36.0835 45.1197C35.8072 44.9311 35.5377 44.9176 35.2075 44.9176H21.2997C20.9358 44.9176 20.572 44.9445 20.2687 45.1602V45.1063H20.2755Z" fill="#BF68CD"/>
<path d="M50.0183 18.0386H50.18C51.0357 18.0386 51.878 18.0992 52.7203 18.2407C52.9359 18.2744 53.1448 18.2946 53.3604 18.3148C53.5559 18.3418 53.7378 18.4159 53.9197 18.49C54.3308 18.645 54.7418 18.7865 55.1663 18.9011C55.3954 18.9617 55.5976 19.0763 55.8064 19.1841C55.8536 19.2043 55.9008 19.2312 55.9479 19.2582C56.3186 19.4469 56.6689 19.649 57.0193 19.8714C57.1339 19.9455 57.2821 19.9725 57.4573 19.9522C57.4708 19.9927 57.491 20.0331 57.5045 20.0735C57.619 20.2689 57.7471 20.3498 57.9357 20.4778C58.2929 20.7339 58.623 21.0034 58.9397 21.2999C58.9936 21.3538 59.0543 21.4077 59.1149 21.4616C60.2268 22.6543 61.6351 24.7229 61.6351 26.421L61.7698 26.4884C61.79 26.6299 61.8102 26.7781 61.8237 26.9196C61.8372 27.0881 61.8642 27.2498 61.8844 27.4183C62.1 28.9209 62.1472 30.437 62.2078 31.9531C62.2752 34.042 62.6593 36.0635 63.3533 38.0108C63.4207 38.1456 63.4544 38.2602 63.4544 38.3477C63.5218 38.368 63.5892 38.3949 63.6565 38.4151V38.6173C63.697 38.6981 63.7441 38.779 63.8048 38.8666C63.8385 38.9138 63.8722 38.9677 63.9059 39.0148C63.9395 39.0687 63.98 39.1227 64.0137 39.1766C65.1861 41.0026 66.0958 42.9567 65.6645 45.1736C65.3883 46.4135 64.802 47.4714 63.9261 48.3811C63.8115 48.5158 63.697 48.6506 63.5892 48.7853C63.5218 48.7651 63.4544 48.7382 63.387 48.718C63.2994 48.536 63.2185 48.3608 63.1444 48.1722C62.7132 47.1547 62.1539 46.3191 61.3655 45.551C61.3116 45.4971 61.2577 45.4499 61.2038 45.396C59.7079 44.0012 57.5247 43.361 55.5639 43.0106C55.4493 42.9904 55.3415 42.9702 55.2269 42.95C54.7822 42.8691 54.3308 42.7883 53.8793 42.7276C53.8523 42.384 53.8389 42.0403 53.8254 41.7034C53.8119 41.5147 53.7984 41.3261 53.7782 41.1307C53.731 40.5175 53.7715 40.1064 53.886 39.911C54.0814 39.6887 54.324 39.5337 54.5666 39.3787C55.2674 38.8868 55.9345 37.9637 56.2175 37.1618C56.3994 36.6564 56.5881 36.3532 56.7768 36.2656C57.1002 36.178 57.4371 36.1645 57.7673 36.1443C58.4344 36.077 58.9667 35.6727 59.4047 35.1875C59.8764 34.5608 60.092 33.8803 60.0111 33.0986C59.9101 32.5326 59.6607 32.1351 59.2497 31.7375C58.7039 31.3804 58.239 31.2726 57.5853 31.3467C57.0463 31.468 56.6892 31.7712 56.3051 32.1553C55.8469 31.9599 55.6919 31.4882 55.51 31.0502C55.3752 30.6931 55.3078 30.3764 55.2943 29.999H55.1798C53.5424 29.9249 51.8645 28.9546 50.6449 27.9102C50.591 27.863 50.5371 27.8158 50.4765 27.7687C49.4522 26.8725 48.7312 25.855 48.0911 24.669C47.99 24.4804 47.8822 24.3052 47.7475 24.1435C47.7205 24.1771 47.6936 24.2108 47.6733 24.2445C46.2853 26.0773 44.284 27.5463 41.9862 27.9641C41.683 27.9978 41.3865 27.991 41.0833 27.9843V28.2538C41.0833 28.5638 41.0563 28.867 41.0227 29.177C40.8744 30.5785 40.8003 31.9666 40.7936 33.3749V33.759C40.7733 35.6929 41.1439 37.647 42.4983 39.1092C42.5455 39.1631 42.5927 39.2103 42.6398 39.2642C43.9403 40.6455 45.8001 41.3059 47.6194 41.6697V42.95C47.4173 42.9837 47.2151 43.0174 47.0062 43.0578C45.1465 43.4015 43.098 44.0618 41.6291 45.3084C41.5617 45.369 41.4674 45.4364 41.3528 45.5173C40.3084 45.1669 39.365 43.7519 38.9001 42.8422C38.7855 42.5929 38.7249 42.384 38.7249 42.2155C38.6777 42.1953 38.6373 42.1684 38.5901 42.1481C38.5699 41.9325 38.5564 41.7169 38.5497 41.5013C38.5497 41.38 38.5362 41.2587 38.5228 41.1374C38.4756 41.1172 38.4352 41.0902 38.388 41.07C38.4284 39.783 38.6103 38.6038 38.9742 37.364C39.0888 36.9664 39.1561 36.6295 39.1292 36.2185H39.264C39.5133 34.8034 39.5739 33.4625 39.4661 32.0272C39.3987 31.0637 39.3853 30.1068 39.3853 29.1433V28.9479C39.3853 27.8697 39.4189 26.8051 39.6817 25.7539C39.6952 25.6933 39.7087 25.6394 39.7222 25.5787C40.2208 23.6516 41.2518 21.7042 42.8353 20.4509C42.8959 20.397 42.9633 20.3498 43.0239 20.2959C43.5091 19.9051 44.0077 19.5951 44.5535 19.2986C44.7354 19.1976 44.8904 19.0897 45.0521 18.9685C45.2206 18.9145 45.3891 18.8606 45.5575 18.8135C45.881 18.7191 46.1977 18.6046 46.5144 18.49C46.9186 18.3418 47.3229 18.2879 47.7475 18.2272C47.8283 18.2138 47.9092 18.2003 47.99 18.1936C48.6639 18.0992 49.3242 18.0723 50.0048 18.0723L50.0183 18.0386Z" fill="#824E31"/>
<path d="M43.1789 55.9954C43.2193 56.0156 43.2598 56.0358 43.3069 56.056C44.0818 56.4468 44.7759 56.9859 45.4362 57.5384C45.4766 57.5721 45.5103 57.5991 45.5508 57.6328C45.6518 57.7136 45.7462 57.7945 45.8473 57.8821C46.1572 58.0977 46.5278 58.1449 46.8917 58.2257C46.9725 58.2459 47.0601 58.2594 47.1477 58.2796C47.4375 58.3403 47.7205 58.3942 48.0102 58.4548C48.0641 58.4683 48.1181 58.475 48.172 58.4885C50.9212 59.0208 53.6704 59.2499 56.4668 59.378C56.4668 59.3308 56.4668 59.2836 56.4803 59.2365C56.5274 58.6502 56.5813 58.0573 56.642 57.471C56.642 57.3767 56.6622 57.2756 56.6689 57.1813C56.6891 56.9454 56.7161 56.7096 56.7363 56.4805C56.7767 56.4805 56.8104 56.4805 56.8509 56.494C59.2093 56.7635 61.6418 56.4333 63.9463 55.9414C63.9665 56.6085 63.9058 57.2554 63.825 57.909C63.825 57.9629 63.8115 58.0168 63.8048 58.0707C63.4207 61.3927 62.6593 63.5827 61.5138 64.6338C61.3857 64.7012 61.2577 64.7753 61.1297 64.8427C61.0151 64.9168 60.9141 65.0044 60.8399 65.1055C60.7928 65.4492 60.8399 65.7659 60.8804 66.1095C60.9275 66.5003 60.9545 66.8912 60.9814 67.282C60.9949 67.4235 61.0016 67.565 61.0151 67.7065C61.0151 67.7941 61.0286 67.8817 61.0353 67.9693C61.0353 68.0501 61.0488 68.1243 61.0556 68.2051C61.0421 68.3399 60.9949 68.4612 60.9141 68.569C60.7119 68.7172 60.5098 68.7644 60.2739 68.8183C60.2267 68.8318 60.1728 68.8385 60.1189 68.852C59.9505 68.8857 59.7888 68.9194 59.6203 68.9531C59.5664 68.9665 59.5125 68.9733 59.4586 68.9868C58.5691 69.1687 57.6729 69.2765 56.77 69.3708C56.7161 69.3708 56.6622 69.3843 56.6083 69.3911C56.4533 69.4045 56.2916 69.4247 56.1366 69.4382C56.0894 69.4382 56.049 69.4382 56.0018 69.4517C55.045 69.546 54.0814 69.573 53.1179 69.573H51.5613C49.7285 69.573 47.9024 69.546 46.0764 69.3506C45.9753 69.3371 45.8742 69.3304 45.7731 69.3169C44.7624 69.2159 43.7651 69.0744 42.7611 68.9059C42.6803 68.8924 42.5994 68.8789 42.5185 68.8655C42.4444 68.852 42.3703 68.8385 42.2894 68.825C42.2221 68.8116 42.1614 68.8048 42.094 68.7914C41.966 68.7577 41.7436 68.6768 41.4269 68.542V67.2618C41.3798 67.2415 41.3393 67.2146 41.2922 67.1944C41.3393 67.1742 41.3798 67.1472 41.4269 67.127C41.4539 66.6688 41.4876 66.2106 41.5145 65.7524C41.5145 65.5974 41.5348 65.4424 41.5415 65.2874C41.5954 64.398 41.6426 63.5085 41.6291 62.6191C41.3798 62.7134 41.1911 62.8212 40.9755 62.9762C40.1804 63.5422 39.3785 63.805 38.4015 63.7983H38.1791C37.1481 63.7781 36.2048 63.5085 35.2951 63.0234C35.2479 62.9964 35.194 62.9695 35.1469 62.9425C34.4865 62.5921 34.0216 62.3024 33.7453 62.08C33.624 62.0463 33.5095 62.0194 33.4084 62.0126C33.4016 61.9722 33.3949 61.925 33.3814 61.8846C33.368 61.8374 33.3545 61.7903 33.341 61.7431L33.2062 61.6757C33.186 61.7229 33.1591 61.7633 33.1389 61.8105C33.1186 61.7229 33.0917 61.6353 33.0715 61.541C33.6105 61.4736 34.1429 61.4601 34.6819 61.4534H35.1469C35.5309 61.4534 35.915 61.4534 36.2991 61.4399C36.6225 61.4399 36.9527 61.4399 37.2762 61.4264H38.2599C38.3947 61.4264 38.5295 61.3995 38.6642 61.3456C38.7114 61.1164 38.7384 60.9008 38.7316 60.6717C38.6306 60.5504 38.516 60.4359 38.3947 60.3348C38.2936 59.9912 38.3475 59.7351 38.4351 59.3982C38.4823 59.1691 38.4351 59.0074 38.3408 58.7985C38.233 58.5492 38.1858 58.4144 38.2263 58.1314C38.3408 57.8821 38.4554 57.7473 38.6642 57.5721C38.7316 57.5519 38.799 57.5249 38.8664 57.5047C38.8192 57.3902 38.7788 57.2824 38.7316 57.1678H38.5969V57.0331C38.516 57.0331 38.4419 57.0196 38.361 57.0128C37.2088 56.8983 36.481 56.7029 36.1711 56.4266C36.0431 56.2177 36.0363 56.0964 36.0431 55.8539C36.1172 55.5641 36.2048 55.463 36.4406 55.2811C38.2397 54.6544 41.5078 55.207 43.1789 56.0223V55.9954Z" fill="#F5AE89"/>
<path d="M47.7609 24.0557C47.9092 24.1904 48.0035 24.3185 48.0911 24.4937C48.1113 24.5408 48.1383 24.588 48.1585 24.6352L48.2326 24.7834C48.8795 26.0367 49.8094 27.2429 50.9481 28.0852C50.9953 28.1188 51.0425 28.1525 51.0896 28.1862C52.3632 29.1161 53.7378 29.736 55.3011 29.9786C55.3145 30.0393 55.328 30.0999 55.3415 30.1673C55.4965 30.8681 55.7795 31.488 56.1905 32.027C56.2309 32.0405 56.2714 32.054 56.3118 32.0675C56.3455 32.0338 56.3859 31.9934 56.4196 31.9597C56.9115 31.4947 57.3428 31.2521 58.0233 31.2185C58.623 31.2387 59.1351 31.4812 59.5462 31.9192C59.9976 32.492 60.1391 33.1052 60.0852 33.8194C59.9505 34.5674 59.5327 35.2412 58.9397 35.7062C58.239 36.1509 57.4708 36.353 56.6487 36.3126C56.6285 36.3935 56.6083 36.4676 56.5881 36.5484C56.3253 37.3301 55.8469 38.0578 55.3011 38.671C55.2539 38.7249 55.2067 38.7855 55.1528 38.8395C54.7687 39.2774 54.3712 39.6952 53.886 40.0187C53.8658 40.1063 53.8591 40.2073 53.8658 40.3084V40.8879C53.8658 41.1776 53.8658 41.4606 53.8793 41.7504V42.5792C53.8793 43.3406 53.6434 43.8527 53.1246 44.3985C52.2015 45.2947 50.9616 45.5845 49.715 45.571C49.0479 45.5508 48.4415 45.3756 47.9563 44.8904C47.6396 44.54 47.5116 44.284 47.5183 43.7988C47.5251 43.6978 47.5453 43.5899 47.5655 43.4686C47.5992 43.2598 47.6127 43.0644 47.6194 42.8555V42.1884C47.6194 42.0064 47.6329 41.8178 47.6396 41.6358H47.4981C47.0601 41.6021 46.6626 41.5348 46.2448 41.4C46.1842 41.3798 46.1303 41.3663 46.0696 41.3461C44.7017 40.9081 43.5293 40.2478 42.5185 39.2168L42.3636 39.0618C41.1911 37.8152 40.6925 36.0498 40.6857 34.372V33.4354C40.6857 32.4448 40.7194 31.4678 40.7935 30.484C40.7935 30.4233 40.7935 30.3694 40.807 30.3088C40.8677 29.5271 40.9485 28.7455 41.0361 27.9639C41.1102 27.9571 41.1776 27.9504 41.2585 27.9437C43.125 27.7415 44.7557 26.9801 46.1572 25.7402C46.2246 25.6863 46.2852 25.6257 46.3594 25.5718C46.8782 25.1203 47.296 24.6082 47.707 24.0557H47.7609Z" fill="#F6B08C"/>
<path d="M28.4086 43.1181H31.7575C32.7278 43.1181 33.6981 43.1181 34.6617 43.1518H35.0458C36.3328 43.1922 37.1953 43.4415 37.64 43.9064C38.0915 44.4927 38.2128 45.2137 38.361 45.9212C38.3812 46.0223 38.4015 46.1233 38.4284 46.2244C38.4823 46.4939 38.543 46.7567 38.5969 47.0263C38.6508 47.2958 38.7114 47.5586 38.7653 47.8281C38.954 48.7176 39.1427 49.607 39.3179 50.5032C39.4189 51.0153 39.5267 51.5207 39.6413 52.0328C39.6548 52.08 39.6615 52.1271 39.675 52.1743C39.8367 52.9223 40.0186 53.6635 40.214 54.4047C40.2343 54.4788 40.2477 54.5529 40.268 54.6271C40.2814 54.6877 40.3016 54.7483 40.3151 54.8157C40.3488 54.9909 40.3556 55.1459 40.3488 55.3278C40.0456 55.3076 39.7424 55.2874 39.4459 55.2672C39.3583 55.2672 39.2707 55.2537 39.1831 55.247C39.1022 55.247 39.0214 55.2335 38.9338 55.2268L38.7047 55.2133C38.5901 55.1998 38.5093 55.1728 38.4621 55.1257C38.4351 55.0179 38.4149 54.9033 38.388 54.7955C38.3745 54.7281 38.361 54.6607 38.3475 54.5866C38.3341 54.5125 38.3206 54.4384 38.3071 54.3575C38.2802 54.2025 38.2465 54.0476 38.2195 53.8993C38.206 53.8252 38.1926 53.7443 38.1723 53.6635C38.0982 53.2929 38.0174 52.9223 37.9365 52.5517C37.8893 52.3226 37.8556 52.1271 37.8556 51.8913H37.6535C37.7007 51.7565 37.7411 51.6689 37.7883 51.6218L37.5861 51.5544H37.7209C37.6602 51.2579 37.5929 50.9614 37.5322 50.6649C37.512 50.5773 37.4985 50.4965 37.4783 50.4089C37.4581 50.3213 37.4446 50.2404 37.4244 50.1663C37.4109 50.0922 37.3907 50.0181 37.3772 49.9439C37.3166 49.7351 37.229 49.5801 37.1144 49.4049C37.0673 49.2229 37.0605 49.0545 37.0471 48.8658L37.1144 48.7984C37.1077 48.7176 37.0875 48.63 37.0673 48.5289C37.0538 48.475 37.0403 48.4211 37.0336 48.3672C37.0201 48.3133 37.0066 48.2526 36.9932 48.1987C36.9797 48.1448 36.9662 48.0842 36.9527 48.0303C36.9123 47.8349 36.8516 47.6395 36.7775 47.4575C36.7573 47.3362 36.7371 47.2082 36.7236 47.0802C36.6697 46.7028 36.6023 46.3322 36.5215 45.9616C36.5147 45.9145 36.5013 45.8605 36.4945 45.8066C36.4743 45.6988 36.4339 45.5708 36.3732 45.4293C36.2587 45.3552 36.1509 45.3147 36.0363 45.2945V45.0924C35.8342 45.025 35.6388 44.9576 35.4299 44.8902C35.4097 44.9374 35.3827 44.9778 35.3625 45.025C35.3086 45.0115 35.2547 45.0048 35.194 44.9913C34.9178 44.9509 34.655 44.9441 34.3787 44.9509H21.2997C20.9291 44.9509 20.5383 44.9644 20.2687 45.2406C20.1744 45.5304 20.2216 45.7527 20.2822 46.0492C20.289 46.0964 20.3024 46.1368 20.3092 46.184C20.3361 46.3255 20.3698 46.467 20.3968 46.6085C20.4372 46.7972 20.4709 46.9791 20.5113 47.1678C20.5315 47.2554 20.545 47.343 20.5652 47.4306C20.6057 47.6327 20.6326 47.8281 20.6461 48.037C20.6528 48.1179 20.6663 48.1987 20.673 48.2796C20.7202 48.2998 20.7606 48.3268 20.8078 48.347C20.8213 48.4211 20.8348 48.5154 20.8415 48.6165C20.8684 48.9467 20.9291 49.2566 20.9965 49.5801C21.0099 49.634 21.0234 49.6946 21.0302 49.7553C21.0706 49.9372 21.1043 50.1124 21.1447 50.2943C21.1919 50.5302 21.2458 50.7728 21.293 51.0086C21.3064 51.0625 21.3132 51.1164 21.3266 51.1703C21.3738 51.4062 21.4075 51.615 21.4075 51.8576C21.4547 51.8778 21.4951 51.9048 21.5423 51.925C21.5625 52.0665 21.576 52.2013 21.5894 52.3428C21.6299 52.7066 21.7175 53.0638 21.7916 53.4209C21.8185 53.5489 21.8455 53.6837 21.8724 53.8117C21.9129 53.9937 21.9533 54.1823 21.987 54.3643C22.0679 54.7416 22.1487 55.1189 22.2296 55.503C22.2498 55.5974 22.27 55.6917 22.2902 55.786C22.4115 56.3453 22.5261 56.9113 22.6339 57.4773C22.6473 57.5312 22.6541 57.5852 22.6676 57.6391C22.7147 57.8749 22.7619 58.1175 22.8091 58.3533C22.9101 58.8654 22.9843 59.1956 23.402 59.5393C23.6985 59.701 23.9141 59.701 24.2443 59.701H32.9098C34.7358 59.701 36.5686 59.701 38.3947 59.6875V60.0918C38.3947 60.2939 38.4756 60.4085 38.5969 60.5635C38.6642 60.6106 38.7316 60.6511 38.799 60.6982C38.826 60.961 38.8125 61.1497 38.6642 61.3721C38.4284 61.527 38.3341 61.527 38.0578 61.527H36.4541C36.0498 61.527 35.6522 61.527 35.2479 61.5405H34.7695C34.1765 61.5405 33.5768 61.554 32.9839 61.5742C30.9893 61.6214 28.9948 61.6349 27.0003 61.6146H23.4155C22.8495 61.6146 22.3172 61.4462 21.8927 61.0554C21.8455 61.0149 21.7983 60.9745 21.7512 60.9341C21.3806 60.4894 21.2121 60.0177 21.0975 59.4584C21.0841 59.391 21.0706 59.3236 21.0504 59.2495C21.0032 59.0204 20.956 58.7913 20.9089 58.5622C20.8752 58.4005 20.8415 58.232 20.8011 58.0703C20.7337 57.7604 20.673 57.4571 20.6056 57.1472C20.4776 56.534 20.3429 55.9208 20.2148 55.3076C19.7162 53.0099 19.2378 50.7121 18.7661 48.4144C18.6448 47.8079 18.5168 47.2015 18.3955 46.595C18.382 46.5276 18.3685 46.467 18.3551 46.3996C18.2944 46.1233 18.2405 45.8471 18.1664 45.5708C18.1192 45.3687 18.0923 45.2069 18.1057 44.998H18.2405C18.2405 44.9239 18.2405 44.8431 18.2473 44.7689C18.3012 44.3377 18.5303 44.0075 18.8604 43.7313C19.5073 43.2865 20.1205 43.2394 20.8819 43.2259H21.0841C21.3132 43.2259 21.5355 43.2259 21.7646 43.2124H22.0072C24.1365 43.1787 26.2658 43.1787 28.3951 43.1787L28.4086 43.1113V43.1181Z" fill="#7EAAE8"/>
<path d="M41.7639 62.5312C42.0603 62.5649 42.3164 62.6256 42.5994 62.7267C43.1924 62.9288 43.7247 62.949 44.3514 62.9355C45.2004 62.9086 45.854 62.9895 46.6356 63.3398C47.0197 63.5016 47.424 63.6161 47.8216 63.7374C47.8687 63.7509 47.9092 63.7644 47.9563 63.7778C50.9818 64.7145 54.1016 65.577 57.2889 65.5904H57.4708C58.6298 65.5904 59.6877 65.4961 60.7658 65.0312C60.8804 65.2603 60.8601 65.5096 60.8669 65.7589C60.8804 66.0756 60.9006 66.3855 60.9275 66.7022C60.941 66.8909 60.9612 67.0796 60.9747 67.2683C60.9747 67.3626 60.9882 67.4569 61.0016 67.5513C61.0151 67.686 61.0219 67.8208 61.0353 67.9556C61.0353 68.0364 61.0488 68.1105 61.0556 68.1914C61.0421 68.3262 60.9949 68.4475 60.9141 68.5553C60.7119 68.7035 60.5098 68.7507 60.2739 68.8046C60.2267 68.8181 60.1728 68.8248 60.1189 68.8383C59.9505 68.872 59.7888 68.9057 59.6203 68.9394C59.5664 68.9528 59.5125 68.9596 59.4586 68.973C58.5691 69.155 57.6729 69.2628 56.77 69.3571C56.7161 69.3571 56.6622 69.3706 56.6083 69.3773C56.4533 69.3908 56.2916 69.411 56.1366 69.4245C56.0894 69.4245 56.049 69.4245 56.0018 69.438C55.045 69.5323 54.0814 69.5593 53.1179 69.5593H51.5613C49.7285 69.5593 47.9024 69.5323 46.0764 69.3369C45.9753 69.3234 45.8742 69.3167 45.7731 69.3032C44.7624 69.2021 43.7651 69.0606 42.7611 68.8922C42.6803 68.8787 42.5994 68.8652 42.5185 68.8518C42.4444 68.8383 42.3703 68.8248 42.2894 68.8113C42.2221 68.7979 42.1614 68.7911 42.094 68.7776C41.966 68.7439 41.7436 68.6631 41.4269 68.5283V67.248C41.3798 67.2278 41.3393 67.2009 41.2922 67.1807C41.3393 67.1604 41.3798 67.1335 41.4269 67.1133C41.4472 66.992 41.4606 66.8572 41.4674 66.7157C41.4674 66.6281 41.4808 66.5473 41.4808 66.4597C41.4808 66.3721 41.4808 66.271 41.4943 66.1767C41.4943 66.0823 41.5078 65.988 41.5145 65.8869C41.528 65.6309 41.5415 65.3815 41.555 65.1255C41.5752 64.7212 41.6021 64.3169 41.6224 63.9126C41.6224 63.7711 41.6358 63.6296 41.6493 63.4881C41.6493 63.4005 41.6493 63.3129 41.6628 63.2253C41.6628 63.1512 41.6628 63.0703 41.6763 62.9962C41.6897 62.8345 41.7167 62.6862 41.7639 62.5312Z" fill="#BE67CC"/>
<path d="M32.3707 48.5291C32.5391 48.6773 32.7009 48.8323 32.8626 48.9873C32.903 49.0277 32.9502 49.0681 32.9906 49.1153C33.9946 50.1799 34.3181 51.5546 34.2978 52.9696C34.2641 54.0612 33.8059 54.9641 33.058 55.7525C32.1416 56.5948 31.0028 56.9789 29.7697 56.9384C28.3008 56.7632 27.0946 56.0962 26.1445 54.9709C25.7537 54.4385 25.4437 53.7917 25.2551 53.165H25.1203C25.0731 51.0492 25.4168 49.56 26.1513 48.6908C27.856 46.9119 30.5311 47.0264 32.3774 48.5223L32.3707 48.5291ZM28.0851 50.0654C28.0178 50.281 28.0178 50.436 28.0514 50.6584C28.0582 50.7257 28.0717 50.7864 28.0784 50.8538C28.0851 50.9212 28.0986 50.9885 28.1121 51.0627C28.1188 51.1368 28.1323 51.2042 28.1458 51.2783C28.166 51.4265 28.1862 51.5815 28.2132 51.7297C28.2469 51.9589 28.2806 52.188 28.3075 52.4171C28.3277 52.5653 28.3479 52.7135 28.3681 52.8618C28.3749 52.9292 28.3884 52.9965 28.3951 53.0707C28.4557 53.5423 28.5973 53.9803 28.8264 54.3779C29.2239 54.4251 29.4126 54.3375 29.7293 54.1016C29.7697 54.0747 29.8034 54.0477 29.8438 54.014C29.9516 53.9332 30.0595 53.8523 30.1673 53.7714C30.2144 53.7378 30.2616 53.7041 30.3088 53.6704C30.3896 53.6097 30.4705 53.5491 30.5514 53.4884C30.8344 53.2796 31.1241 53.0841 31.4139 52.8887C31.461 52.855 31.5015 52.8281 31.5486 52.7944C31.589 52.7674 31.6295 52.7405 31.6699 52.7135C31.8855 52.5518 31.9731 52.4777 32.0338 52.2014C31.9866 51.9319 31.9664 51.9049 31.771 51.7432C31.4745 51.5478 31.1578 51.3928 30.8411 51.2446C30.6726 51.157 30.5177 51.0627 30.3627 50.9548C30.0729 50.7527 29.763 50.5842 29.4463 50.4225C29.3991 50.3956 29.3452 50.3686 29.298 50.3417C28.9139 50.1395 28.5097 50.0452 28.0851 50.0654Z" fill="#FD4E4A"/>
<path d="M53.758 40.1602H53.8254C53.8725 40.8946 53.8995 41.6291 53.9062 42.3636V42.5657C53.9062 43.3406 53.6771 43.846 53.1515 44.4053C52.2284 45.3015 50.9886 45.5912 49.742 45.5777C49.0749 45.5575 48.4684 45.3823 47.9833 44.8972C47.6666 44.5468 47.5386 44.2907 47.5453 43.8056C47.552 43.7045 47.5655 43.6034 47.5857 43.4889C47.6329 43.1587 47.6464 42.8218 47.6598 42.4916V42.2827C47.6598 42.1143 47.6733 41.9458 47.6801 41.7773H47.7474C47.7677 42.1143 47.7946 42.4444 47.8148 42.7881C49.87 42.6735 51.6961 42.4849 53.3402 41.1035C53.4076 41.0496 53.475 40.9957 53.5424 40.9418C53.731 40.6925 53.7378 40.4634 53.7445 40.1602H53.758Z" fill="#F6B08A"/>
<path d="M53.6906 40.0928L53.8254 40.1602C53.8254 40.551 53.7917 40.7733 53.5154 41.0631C52.8079 41.71 51.9589 42.1412 51.0627 42.4512C51.002 42.4714 50.9414 42.4916 50.8807 42.5186C49.897 42.8285 48.7851 42.815 47.7609 42.8555V41.71H48.0439C49.998 41.6358 51.9184 41.3326 53.5558 40.1804C53.5963 40.1534 53.6434 40.1265 53.6906 40.0995V40.0928Z" fill="#DF9375"/>
<path d="M43.9201 30.9961C44.1559 31.1173 44.2907 31.2252 44.4524 31.4408C44.5872 31.8451 44.5872 32.2426 44.4524 32.6469C44.2772 32.8962 44.1492 33.0647 43.8325 33.1186C43.5225 33.1388 43.3676 33.1253 43.1182 32.9367C42.815 32.5256 42.7948 32.182 42.8487 31.6699C43.0778 31.1915 43.3878 30.9219 43.9268 30.9961H43.9201Z" fill="#2C2A2B"/>
<path d="M51.1301 31.6697C51.3726 31.818 51.5546 31.9932 51.6961 32.2358C51.7904 32.6805 51.7298 33.0848 51.5344 33.4891C51.3255 33.6912 51.1638 33.8125 50.874 33.8462C50.591 33.8192 50.463 33.7384 50.2541 33.5565C49.998 33.2061 50.0048 32.8287 50.0519 32.4109C50.2204 31.9056 50.5843 31.5619 51.1301 31.6697Z" fill="#2B292A"/>
<path d="M49.149 36.9795C49.2568 36.9862 49.3309 37.0132 49.3781 37.0604C49.4051 37.1749 49.4051 37.3097 49.3781 37.4646C48.994 37.97 48.3067 38.253 47.6935 38.3406C46.7367 38.4013 46.009 38.3002 45.2408 37.6735C45.1667 37.5792 45.1263 37.4714 45.106 37.3568C45.0858 37.2423 45.1397 37.1412 45.2678 37.0604C45.5103 37.0604 45.5979 37.121 45.7799 37.2827C46.2381 37.6803 46.8176 37.7814 47.4105 37.7611C47.9429 37.6938 48.5089 37.4849 48.8795 37.0806C48.9401 37.0267 49.0345 36.993 49.1558 36.9795H49.149Z" fill="#844A2E"/>
<path d="M56.3185 50.9414H56.6555C56.7835 51.0694 56.7363 51.2716 56.7363 51.4333V52.1745C56.7363 53.0033 56.7161 53.8321 56.6757 54.6609C56.6757 54.7822 56.6622 54.9035 56.6622 55.0181C56.6622 55.1865 56.6487 55.355 56.6352 55.5234V55.6784C56.6218 55.9547 56.5881 56.1299 56.3927 56.332C56.3051 56.3118 56.2175 56.2849 56.1231 56.2646C56.1029 55.0248 56.1366 53.785 56.1838 52.5451V52.3295C56.1838 52.1273 56.204 51.9185 56.2107 51.7163V51.2042C56.2175 51.1233 56.2444 51.0357 56.2916 50.9481L56.3185 50.9414Z" fill="#9B4EB7"/>
<path d="M42.3703 50.6719C42.5927 50.7123 42.7274 50.7595 42.7746 50.8066C42.7611 51.4939 42.6466 52.1745 42.5455 52.8483C42.4579 53.4413 42.3703 54.0343 42.2962 54.6272C42.2827 54.7081 42.276 54.7957 42.2625 54.8833C42.2423 55.1191 42.2355 55.355 42.2423 55.5976C42.1479 55.5976 42.0469 55.5841 41.9525 55.5706C41.8986 55.5706 41.8447 55.5706 41.7908 55.5571C41.6897 55.5369 41.5685 55.483 41.4337 55.3954H41.6358C41.6358 55.328 41.6493 55.2606 41.656 55.1865C41.7369 54.4655 41.8312 53.7445 41.9391 53.0235C41.9525 52.9225 41.966 52.8146 41.9795 52.7136C42.0064 52.5114 42.0334 52.3093 42.0671 52.1071C42.094 51.9185 42.121 51.7298 42.1412 51.5411C42.1547 51.4535 42.1614 51.3727 42.1749 51.2851C42.1749 51.2109 42.1951 51.1368 42.2018 51.0627C42.2221 50.9414 42.2827 50.8134 42.3703 50.6786V50.6719Z" fill="#9C4FB8"/>
<path d="M43.846 28.4019H43.9942C44.3109 28.4086 44.5333 28.4692 44.8028 28.6377C44.85 28.7792 44.8702 28.914 44.8702 29.042C44.7826 29.1296 44.695 29.1835 44.6141 29.1902C44.567 29.1902 44.5198 29.1902 44.4659 29.1835H44.129C43.5158 29.17 43.0643 29.2509 42.559 29.6147C42.4377 29.6889 42.3164 29.7226 42.1884 29.7158C42.0603 29.7091 41.993 29.6687 41.9727 29.5945C41.9525 29.5204 41.9525 29.3856 41.9727 29.1902C42.3973 28.6107 43.1722 28.4221 43.8527 28.4153V28.4019H43.846Z" fill="#7B452B"/>
<path d="M51.6557 29.2241C52.1475 29.406 52.7607 29.716 53.0168 30.1877C53.0033 30.4707 52.9561 30.6526 52.882 30.7267C52.8079 30.8008 52.6933 30.8008 52.5451 30.7267C52.4238 30.6189 52.316 30.4976 52.2015 30.3763C51.75 29.9451 51.1975 29.9047 50.5977 29.8777C50.4562 29.8575 50.335 29.8036 50.2474 29.716C50.2271 29.6082 50.2271 29.4936 50.2474 29.3791C50.5977 29.0219 51.2042 29.1163 51.6489 29.2241H51.6557Z" fill="#7E482D"/>
<path d="M46.2785 32.8154L46.548 32.8828C46.6019 33.0782 46.6356 33.1793 46.548 33.368C46.5143 33.4151 46.4807 33.4623 46.447 33.5162C46.4133 33.5701 46.3728 33.624 46.3391 33.6779C46.2987 33.7318 46.2583 33.7857 46.2246 33.8396C46.1505 33.9475 46.0764 34.0553 45.9955 34.1698C45.9618 34.217 45.9281 34.2642 45.8944 34.3181C45.7394 34.5472 45.699 34.6954 45.7462 34.9784C45.8877 35.1199 46.0494 35.2143 46.2179 35.3153C46.2852 35.3558 46.3459 35.3962 46.4133 35.4366C46.4604 35.4636 46.5076 35.4905 46.5548 35.5175C46.5346 35.6051 46.5076 35.6927 46.4874 35.787C46.0494 35.8342 45.7597 35.7062 45.4093 35.4501C45.2206 35.2412 45.1532 35.1064 45.0993 34.8302C45.2273 34.0688 45.8338 33.4219 46.2852 32.8222L46.2785 32.8154Z" fill="#BD7355"/>
<path d="M45.5373 34.0957C45.726 34.3652 45.6586 34.5943 45.6047 34.9043C45.9146 35.1132 46.2313 35.3153 46.548 35.5107L46.4807 35.7803C46.1909 35.8005 45.9955 35.7735 45.9012 35.6994C45.8675 35.659 45.8405 35.6186 45.8068 35.5781C45.7394 35.531 45.6721 35.4905 45.5979 35.4434C45.4699 35.3558 45.3554 35.2412 45.2678 35.1064C45.2139 34.7965 45.2273 34.527 45.4025 34.2574C45.4497 34.2035 45.4901 34.1496 45.5373 34.0957Z" fill="#C27A5B"/>
<path d="M45.0656 18.8672H45.6047C45.4969 19.0896 45.261 19.13 45.0387 19.2176C44.567 19.4197 44.1357 19.6488 43.718 19.9453C43.6506 19.9925 43.5832 20.0396 43.5158 20.0868C42.5994 20.7606 41.8312 21.5423 41.2248 22.5059C41.1776 22.58 41.1305 22.6474 41.0833 22.7282C40.9687 22.9034 40.8609 23.0786 40.7531 23.2471C40.7329 23.1999 40.7059 23.1595 40.6857 23.1123C40.7531 22.9641 40.8205 22.8293 40.9014 22.6878C40.9283 22.6474 40.9485 22.6069 40.9755 22.5598C41.2517 22.0948 41.6021 21.6973 41.966 21.293C42.0266 21.2188 42.0806 21.1515 42.1412 21.0773C42.3568 20.828 42.5859 20.6259 42.842 20.417C42.9026 20.3631 42.97 20.3092 43.0307 20.2553C43.5158 19.8645 44.0144 19.5545 44.5602 19.2647C44.7422 19.1637 44.9039 19.0693 45.0589 18.9346V18.8672H45.0656Z" fill="#6E3E27"/>
<path d="M40.4162 60.4424V60.7793C40.0456 60.9006 39.7289 60.9343 39.3448 60.9208H38.799C38.7788 60.8062 38.7518 60.6984 38.7316 60.5839C39.6413 60.3885 40.2006 60.3413 40.4162 60.4491V60.4424Z" fill="#E19276"/>
<path d="M39.3718 58.6771H40.3488C40.3084 58.8994 40.2612 59.0342 40.2141 59.0813H38.671C38.7384 58.9196 38.7788 58.8253 38.927 58.731C39.0888 58.6771 39.2101 58.6636 39.3785 58.6636V58.6771H39.3718Z" fill="#E09276"/>
<path d="M38.799 57.0057C39.3785 56.9855 39.9176 57.0394 40.4836 57.1404C40.5038 57.2078 40.5307 57.2752 40.551 57.3426C40.2814 57.3628 40.0186 57.3763 39.7491 57.3898C39.675 57.3898 39.5941 57.3965 39.52 57.4032C39.4459 57.4032 39.3718 57.41 39.2976 57.4167C39.2235 57.4167 39.1561 57.4234 39.0955 57.4302C39.0416 57.4302 38.9877 57.4167 38.9338 57.4167C38.8462 57.2819 38.799 57.1472 38.799 57.0124V57.0057Z" fill="#D48A6D"/>
<path d="M54.4318 18.7324C54.4857 18.7392 54.5464 18.7526 54.607 18.7594C54.7687 18.7863 54.9305 18.8065 55.0922 18.8268C55.1663 18.8402 55.2337 18.8537 55.3078 18.8672C55.328 18.9144 55.355 18.9548 55.3752 19.002C55.4628 19.0559 55.5639 19.103 55.6784 19.1502C55.7391 19.1771 55.7997 19.2108 55.8671 19.2378C55.9277 19.2715 55.9951 19.2984 56.0625 19.3254C56.5409 19.5478 56.8643 19.7095 57.0193 19.824C57.1743 19.9386 57.3225 19.9723 57.4641 19.9386C57.4775 19.979 57.491 20.0194 57.5112 20.0599C57.6325 20.262 57.774 20.3496 57.9627 20.4776C58.2255 20.6596 58.4209 20.828 58.6096 21.0908C58.3602 20.983 58.1648 20.8213 57.9492 20.6461C56.8846 19.8173 55.6851 19.2917 54.4318 18.7998V18.7324Z" fill="#6D3D26"/>
<path d="M41.6965 62.8008H41.7639C41.7841 63.7576 41.7234 64.7145 41.6628 65.6713C41.5145 66.6686 41.5011 67.6456 41.6291 68.5957C41.5617 68.5755 41.4943 68.5485 41.4269 68.5283V67.248C41.3798 67.2278 41.3393 67.2009 41.2922 67.1807C41.3393 67.1604 41.3798 67.1335 41.4269 67.1133C41.4472 66.992 41.4606 66.8572 41.4674 66.709C41.4674 66.6214 41.4808 66.5338 41.4808 66.4462C41.4808 66.3586 41.4943 66.2575 41.4943 66.1632C41.4943 66.0688 41.5078 65.9678 41.5145 65.8734C41.528 65.6174 41.5415 65.3613 41.5617 65.112C41.5752 64.8492 41.5954 64.5932 41.6089 64.3304C41.6426 63.8183 41.6695 63.3129 41.6965 62.8008Z" fill="#B668BB"/>
<path d="M43.9201 30.9959C44.1694 31.1239 44.3244 31.2654 44.3851 31.4137V31.535C44.3311 31.4743 44.2772 31.4204 44.2166 31.3598C44.0414 31.2115 43.9336 31.1711 43.7045 31.1913C43.4552 31.2385 43.3339 31.3396 43.1722 31.535H43.0374C42.9902 31.6226 42.9498 31.7102 42.9026 31.8045C42.9026 31.5956 42.9296 31.4474 43.0643 31.2857C43.3339 31.0296 43.5293 30.9285 43.9134 30.9959H43.9201Z" fill="#211B1C"/>
<path d="M50.9077 29.1701H51.1098C51.157 29.1701 51.2109 29.1701 51.2648 29.1768C50.9953 29.325 50.7662 29.3453 50.4562 29.379C50.436 29.4935 50.4091 29.6013 50.3889 29.7159H51.0627V29.7833C50.9549 29.7967 50.8471 29.8102 50.7325 29.8237C50.6719 29.8304 50.6112 29.8372 50.5506 29.8506H50.3889C50.3013 29.763 50.2474 29.662 50.2271 29.5542C50.2069 29.4463 50.2541 29.352 50.3619 29.2711C50.5573 29.1566 50.6853 29.1566 50.9077 29.1701Z" fill="#612E18"/>
<path d="M36.9123 55.1191C37.6602 55.1191 38.3947 55.1191 39.1359 55.1865V55.2539C38.6238 55.2741 38.1117 55.3011 37.5861 55.3213C37.5659 55.2741 37.539 55.2337 37.5187 55.1865H36.9123V55.1191Z" fill="#E3AD98"/>
<path d="M41.7639 62.5312C42.121 62.5784 42.3905 62.6458 42.5724 62.7334C42.3097 62.821 42.1614 62.7469 41.8986 62.666V63.6094H41.8312L41.7639 62.5312Z" fill="#B552D6"/>
<path d="M39.8771 57.0732C40.0793 57.0935 40.2747 57.1204 40.4836 57.1406C40.5038 57.208 40.5307 57.2754 40.551 57.3428H39.675C39.6952 57.2956 39.7222 57.2552 39.7424 57.208H39.8771V57.0732Z" fill="#DC8D71"/>
<path d="M39.8771 44.1357H40.0119C40.0658 44.1964 40.1265 44.2638 40.1871 44.3446C40.4095 44.6142 40.6655 44.8096 40.9553 45.0117L40.7531 45.0791C40.6453 44.9848 40.5375 44.8837 40.4297 44.7894C40.369 44.7355 40.3084 44.6815 40.2477 44.6276C40.0523 44.4524 39.931 44.3312 39.8771 44.2705V44.1357Z" fill="#73412E"/>
<path d="M56.7228 56.4668L57.2619 56.5342V56.6016H56.8576C56.8374 56.9115 56.8104 57.2215 56.7902 57.5449H56.7228V56.4668Z" fill="#FCC675"/>
<path d="M36.0363 45.0117H36.3058C36.4474 45.2476 36.5417 45.4025 36.5754 45.4834L36.508 45.6855C36.4945 45.6451 36.481 45.6047 36.4608 45.5575C36.3463 45.3756 36.2385 45.3419 36.0363 45.2812V45.0117Z" fill="#89B0E9"/>
<path d="M40.8879 34.0283H40.9553V34.9717H40.7531C40.7329 34.5472 40.7801 34.2372 40.8879 34.0283Z" fill="#ECA784"/>
<path d="M57.5988 31.2656H58.4748V31.4678H57.5988V31.2656Z" fill="#ECA984"/>
<path d="M38.8664 57.2754L38.9338 57.4102C38.9809 57.4304 39.0214 57.4573 39.0685 57.4775C39.0281 57.491 38.9944 57.5112 38.954 57.5247C38.7586 57.6393 38.6171 57.7875 38.4621 57.9492C38.4688 57.8414 38.4958 57.7269 38.5295 57.6123C38.644 57.5517 38.7586 57.5112 38.8664 57.4775V57.2754Z" fill="#EDB195"/>
<path d="M64.4719 54.5801H64.5392V55.3213H64.674V55.5908C64.6066 55.611 64.5392 55.638 64.4719 55.6582V54.5801Z" fill="#CD6FD3"/>
<path d="M63.259 48.1787C63.2859 48.2259 63.3129 48.2663 63.3398 48.3135C63.3803 48.3606 63.4207 48.4011 63.4611 48.4482H63.7307C63.6835 48.5628 63.6431 48.6706 63.5959 48.7852C63.5285 48.7649 63.4611 48.738 63.3937 48.7178C63.2994 48.5224 63.259 48.4011 63.259 48.1787Z" fill="#6F4420"/>
<path d="M40.8879 29.918H41.09V30.5244C41.0429 30.5446 41.0024 30.5716 40.9553 30.5918C40.8475 30.3762 40.8811 30.1605 40.8879 29.918Z" fill="#EAA885"/>
<path d="M38.799 57.0059H39.0012V57.1406H39.1359V57.4102H38.9338C38.8462 57.2754 38.799 57.1406 38.799 57.0059Z" fill="#7E8CCE"/>
<path d="M19.1232 49.3916C19.2378 49.6274 19.2782 49.7353 19.2984 49.9846C19.2984 50.0385 19.3052 50.0924 19.3119 50.1463C19.3119 50.1867 19.3119 50.2271 19.3186 50.2676C19.2984 50.2002 19.2715 50.1328 19.2513 50.0654H19.1165V49.3916H19.1232Z" fill="#84B1EF"/>
<path d="M38.8664 48.6504C38.9809 48.8525 39.0214 49.0143 39.0416 49.2434C39.0416 49.2973 39.0416 49.3512 39.0551 49.4051V49.5264C38.9136 49.3512 38.8125 49.2164 38.7855 48.9873C38.8058 48.8593 38.826 48.7515 38.8529 48.6504H38.8664Z" fill="#89A7E5"/>
<path d="M50.5236 29.1768H51.2648C51.002 29.3115 50.8134 29.3452 50.5236 29.3789V29.1768Z" fill="#703A23"/>
<path d="M36.4406 43.3948C36.7371 43.388 36.9595 43.4285 37.1144 43.5295V43.6643C36.8921 43.5969 36.6697 43.5295 36.4406 43.4621V43.3948Z" fill="#87B1EE"/>
<path d="M54.9709 39.0146C54.9911 39.082 55.0181 39.1494 55.0383 39.2168C54.8833 39.3516 54.7283 39.4863 54.5666 39.6211C54.5194 39.6009 54.479 39.5739 54.4318 39.5537L54.9709 39.0146Z" fill="#602E16"/>
<path d="M38.5295 58.96H38.5969V59.5664C38.5295 59.5866 38.4621 59.6136 38.3947 59.6338C38.4419 59.4114 38.4823 59.1891 38.5295 58.96Z" fill="#EEB096"/>
<path d="M37.6535 57.0059H38.3273C38.0308 57.1541 37.9567 57.1406 37.6535 57.0732V57.0059Z" fill="#E5B39F"/>
<path d="M62.2482 31.4004H62.3156V32.1416H62.2482V31.4004Z" fill="#85543A"/>
<path d="M41.2922 67.3828H41.3596V67.9219H41.2922V67.3828Z" fill="#B36CB5"/>
<path d="M38.3273 40.4971H38.3947V40.9014H38.3273V40.4971Z" fill="#8F6655"/>
<path d="M39.2707 29.3789H39.3381V29.7832H39.2707V29.3789Z" fill="#8C5B41"/>
<path d="M33.2736 61.79L33.4084 61.8574H33.2062L33.2736 61.79Z" fill="#BCABB4"/>
<path d="M38.0578 59.499L38.1926 59.6338C38.1252 59.6136 38.0578 59.5866 37.9904 59.5664L38.0578 59.499Z" fill="#C0AEC0"/>
<path d="M38.2599 54.9844L38.3947 55.1191C38.3273 55.0989 38.2599 55.072 38.1926 55.0518L38.2599 54.9844Z" fill="#D1B0B0"/>
<path d="M37.6535 51.9521L37.7883 52.0195C37.7681 52.0667 37.7411 52.1071 37.7209 52.1543C37.7007 52.0869 37.6737 52.0195 37.6535 51.9521Z" fill="#9AAEDA"/>
<path d="M40.4836 44.9443L40.6857 45.0791H40.4836V44.9443Z" fill="#A26E79"/>
<path d="M39.675 44.4053H39.8771C39.8569 44.4524 39.83 44.4929 39.8098 44.54L39.675 44.4053Z" fill="#9B7276"/>
<path d="M60.9006 65.0244L61.0353 65.0918L60.9006 65.1592V65.0244Z" fill="#E09C9B"/>
<path d="M37.7883 52.1543L37.8557 52.2891C37.8085 52.2688 37.7681 52.2419 37.7209 52.2217L37.7883 52.1543Z" fill="#9AADDA"/>
<path d="M35.9016 45.0791L36.0363 45.1465L35.9016 45.2139V45.0791Z" fill="#8EAFE2"/>
<path d="M43.1115 20.0127L43.2463 20.0801L43.1115 20.1475V20.0127Z" fill="#835135"/>
</g>
</svg>
