<svg width="26" height="27" viewBox="0 0 26 27" fill="none" xmlns="http://www.w3.org/2000/svg">
<path d="M12.7853 17.25C14.8564 17.25 16.5353 15.5711 16.5353 13.5C16.5353 11.4289 14.8564 9.75 12.7853 9.75C10.7142 9.75 9.03529 11.4289 9.03529 13.5C9.03529 15.5711 10.7142 17.25 12.7853 17.25Z" stroke="#66696C" stroke-width="2"/>
<path d="M14.992 1.1903C14.5325 1 13.9502 1 12.7853 1C11.6204 1 11.038 1 10.5785 1.1903C9.96599 1.44404 9.47931 1.93073 9.22557 2.54329C9.10974 2.82293 9.06441 3.14813 9.04667 3.62249C9.02061 4.3196 8.66311 4.96486 8.05896 5.31366C7.45483 5.66245 6.71727 5.64942 6.10052 5.32345C5.68084 5.10162 5.37654 4.97828 5.07646 4.93878C4.41908 4.85223 3.75426 5.03036 3.22823 5.434C2.83371 5.73673 2.54249 6.24112 1.96007 7.24991C1.37765 8.25871 1.08643 8.7631 1.02152 9.25614C0.934983 9.9135 1.11312 10.5783 1.51676 11.1044C1.70098 11.3445 1.95991 11.5462 2.36177 11.7987C2.95253 12.17 3.33264 12.8024 3.33261 13.5C3.33257 14.1976 2.95247 14.8299 2.36176 15.201C1.95985 15.4536 1.70088 15.6555 1.51663 15.8956C1.113 16.4216 0.934858 17.0864 1.02141 17.7438C1.08631 18.2368 1.37752 18.7413 1.95995 19.75C2.54238 20.7587 2.83359 21.2632 3.22811 21.5659C3.75413 21.9695 4.41896 22.1476 5.07633 22.0611C5.37639 22.0216 5.68068 21.8983 6.10033 21.6765C6.71712 21.3505 7.45473 21.3375 8.05891 21.6862C8.66308 22.0351 9.02061 22.6804 9.04667 23.3776C9.06442 23.8519 9.10974 24.1771 9.22557 24.4567C9.47931 25.0692 9.96599 25.556 10.5785 25.8097C11.038 26 11.6204 26 12.7853 26C13.9502 26 14.5325 26 14.992 25.8097C15.6045 25.556 16.0913 25.0692 16.3449 24.4567C16.4608 24.1771 16.5062 23.8519 16.5239 23.3775C16.5499 22.6804 16.9074 22.0351 17.5115 21.6862C18.1157 21.3374 18.8533 21.3505 19.4702 21.6765C19.8898 21.8983 20.194 22.0215 20.494 22.061C21.1514 22.1476 21.8163 21.9695 22.3423 21.5659C22.7368 21.2631 23.028 20.7588 23.6104 19.7499C24.1929 18.7411 24.4842 18.2368 24.549 17.7438C24.6355 17.0864 24.4574 16.4215 24.0538 15.8955C23.8695 15.6554 23.6105 15.4535 23.2087 15.201C22.618 14.8299 22.2379 14.1975 22.2379 13.4999C22.2379 12.8022 22.618 12.1701 23.2087 11.799C23.6107 11.5464 23.8697 11.3446 24.0539 11.1044C24.4575 10.5784 24.6357 9.91359 24.5492 9.25621C24.4843 8.76319 24.193 8.25879 23.6105 7.25C23.0282 6.24121 22.7369 5.73681 22.3424 5.43409C21.8164 5.03045 21.1515 4.85231 20.4942 4.93886C20.1942 4.97836 19.8899 5.1017 19.4702 5.3235C18.8534 5.64949 18.1158 5.66253 17.5117 5.3137C16.9074 4.96489 16.5499 4.31957 16.5239 3.62242C16.5062 3.1481 16.4608 2.82291 16.3449 2.54329C16.0913 1.93073 15.6045 1.44404 14.992 1.1903Z" stroke="#66696C" stroke-width="2"/>
</svg>
