<svg width="25" height="27" viewBox="0 0 25 27" fill="none" xmlns="http://www.w3.org/2000/svg">
<path fill-rule="evenodd" clip-rule="evenodd" d="M20.0758 0C17.3562 0 15.1515 2.01471 15.1515 4.5C15.1515 4.77126 15.1777 5.0369 15.2282 5.29494L8.06047 9.88003C8.02404 9.90332 7.98958 9.92822 7.95709 9.95454C7.12111 9.3565 6.06823 9 4.92424 9C2.20465 9 0 11.0148 0 13.5C0 15.9852 2.20465 18 4.92424 18C6.06823 18 7.12111 17.6435 7.95709 17.0454C7.98958 17.0718 8.02404 17.0967 8.06047 17.1199L15.2282 21.7051C15.1777 21.963 15.1515 22.2288 15.1515 22.5C15.1515 24.9852 17.3562 27 20.0758 27C22.7953 27 25 24.9852 25 22.5C25 20.0148 22.7953 18 20.0758 18C18.4806 18 17.0626 18.6931 16.1627 19.7677L9.37585 15.4261C9.67892 14.8422 9.84848 14.1893 9.84848 13.5C9.84848 12.8107 9.67892 12.1578 9.37585 11.5739L16.1627 7.23226C17.0626 8.30689 18.4806 9 20.0758 9C22.7953 9 25 6.98529 25 4.5C25 2.01471 22.7953 0 20.0758 0ZM17.4242 4.5C17.4242 3.16177 18.6114 2.07692 20.0758 2.07692C21.5402 2.07692 22.7273 3.16177 22.7273 4.5C22.7273 5.83823 21.5402 6.92308 20.0758 6.92308C18.6114 6.92308 17.4242 5.83823 17.4242 4.5ZM4.92424 11.0769C3.45985 11.0769 2.27273 12.1618 2.27273 13.5C2.27273 14.8382 3.45985 15.9231 4.92424 15.9231C6.38864 15.9231 7.57576 14.8382 7.57576 13.5C7.57576 12.1618 6.38864 11.0769 4.92424 11.0769ZM20.0758 20.0769C18.6114 20.0769 17.4242 21.1618 17.4242 22.5C17.4242 23.8382 18.6114 24.9231 20.0758 24.9231C21.5402 24.9231 22.7273 23.8382 22.7273 22.5C22.7273 21.1618 21.5402 20.0769 20.0758 20.0769Z" fill="#66696C"/>
</svg>
