<svg width="31" height="25" viewBox="0 0 31 25" fill="none" xmlns="http://www.w3.org/2000/svg">
<path d="M5.03207 4.0777C2.17735 5.21958 0.75 5.79052 0.75 6.5C0.75 7.20948 2.17735 7.78042 5.03207 8.9223L9.06924 10.5372C11.9239 11.679 13.3513 12.25 15.125 12.25C16.8987 12.25 18.326 11.679 21.1808 10.5372L25.218 8.9223C28.0727 7.78042 29.5 7.20948 29.5 6.5C29.5 5.79052 28.0727 5.21958 25.218 4.0777L21.1808 2.46282C18.326 1.32095 16.8987 0.75 15.125 0.75C13.7538 0.75 12.5894 1.09126 10.8125 1.7738" stroke="black" stroke-width="1.5" stroke-linecap="round"/>
<path d="M6.16381 9.375L5.03207 9.82767C2.17735 10.9696 0.75 11.5406 0.75 12.25C0.75 12.9594 2.17735 13.5304 5.03207 14.6723L9.06924 16.2872C11.9239 17.429 13.3513 18 15.125 18C16.8987 18 18.326 17.429 21.1808 16.2872L25.218 14.6723C28.0727 13.5304 29.5 12.9594 29.5 12.25C29.5 11.5406 28.0727 10.9696 25.218 9.82767L24.0862 9.375" stroke="black" stroke-width="1.5"/>
<path d="M25.218 20.4223C28.0727 19.2804 29.5 18.7094 29.5 18C29.5 17.2906 28.0727 16.7196 25.218 15.5777L24.0862 15.125M6.16381 15.125L5.03207 15.5777C2.17735 16.7196 0.75 17.2906 0.75 18C0.75 18.7094 2.17735 19.2804 5.03207 20.4223L9.06924 22.0372C11.9239 23.179 13.3513 23.75 15.125 23.75C16.4962 23.75 17.6606 23.4087 19.4375 22.7262" stroke="black" stroke-width="1.5" stroke-linecap="round"/>
</svg>
